<svg xmlns="http://www.w3.org/2000/svg" xmlns:xlink="http://www.w3.org/1999/xlink" width="6912" zoomAndPan="magnify" viewBox="0 0 5184 2592.000001" height="3456" preserveAspectRatio="xMidYMid meet" version="1.0"><defs><clipPath id="cd81e61161"><path d="M 2511 1343 L 2859 1343 L 2859 1729 L 2511 1729 Z M 2511 1343 " clip-rule="nonzero"/></clipPath><clipPath id="a4c2952316"><path d="M 2617.148438 1343.878906 L 2617.148438 1429.261719 C 2617.148438 1448.917969 2611.195312 1468.0625 2600.027344 1484.234375 C 2579.371094 1514.148438 2543.398438 1563.808594 2511.183594 1596.023438 C 2511.183594 1596.023438 2632.90625 1683.441406 2770.125 1728.8125 L 2858.65625 1597.128906 C 2858.65625 1597.128906 2786.320312 1571.675781 2790.949219 1500.855469 Z M 2617.148438 1343.878906 " clip-rule="nonzero"/></clipPath><linearGradient x1="273.352611" gradientTransform="matrix(2.023633, 0, 0, 2.023633, 2130.015135, 963.65381)" y1="379.211366" x2="275.841417" gradientUnits="userSpaceOnUse" y2="186.802529" id="4152e400e4"><stop stop-opacity="1" stop-color="rgb(100%, 76.499939%, 68.998718%)" offset="0"/><stop stop-opacity="1" stop-color="rgb(100%, 76.499939%, 68.998718%)" offset="0.0115414"/><stop stop-opacity="1" stop-color="rgb(100%, 76.499939%, 68.998718%)" offset="0.25"/><stop stop-opacity="1" stop-color="rgb(99.92981%, 76.322937%, 68.836975%)" offset="0.375"/><stop stop-opacity="1" stop-color="rgb(99.815369%, 76.034546%, 68.57605%)" offset="0.382812"/><stop stop-opacity="1" stop-color="rgb(99.728394%, 75.813293%, 68.373108%)" offset="0.390625"/><stop stop-opacity="1" stop-color="rgb(99.639893%, 75.590515%, 68.170166%)" offset="0.398437"/><stop stop-opacity="1" stop-color="rgb(99.552917%, 75.369263%, 67.967224%)" offset="0.40625"/><stop stop-opacity="1" stop-color="rgb(99.464417%, 75.146484%, 67.764282%)" offset="0.414062"/><stop stop-opacity="1" stop-color="rgb(99.377441%, 74.925232%, 67.562866%)" offset="0.421875"/><stop stop-opacity="1" stop-color="rgb(99.28894%, 74.702454%, 67.359924%)" offset="0.429687"/><stop stop-opacity="1" stop-color="rgb(99.201965%, 74.479675%, 67.156982%)" offset="0.4375"/><stop stop-opacity="1" stop-color="rgb(99.11499%, 74.258423%, 66.954041%)" offset="0.445312"/><stop stop-opacity="1" stop-color="rgb(99.026489%, 74.035645%, 66.752625%)" offset="0.453125"/><stop stop-opacity="1" stop-color="rgb(98.939514%, 73.814392%, 66.549683%)" offset="0.460938"/><stop stop-opacity="1" stop-color="rgb(98.851013%, 73.591614%, 66.346741%)" offset="0.46875"/><stop stop-opacity="1" stop-color="rgb(98.764038%, 73.370361%, 66.143799%)" offset="0.476562"/><stop stop-opacity="1" stop-color="rgb(98.675537%, 73.147583%, 65.940857%)" offset="0.484375"/><stop stop-opacity="1" stop-color="rgb(98.588562%, 72.926331%, 65.739441%)" offset="0.492187"/><stop stop-opacity="1" stop-color="rgb(98.500061%, 72.703552%, 65.536499%)" offset="0.5"/><stop stop-opacity="1" stop-color="rgb(98.413086%, 72.480774%, 65.333557%)" offset="0.507812"/><stop stop-opacity="1" stop-color="rgb(98.324585%, 72.259521%, 65.130615%)" offset="0.515625"/><stop stop-opacity="1" stop-color="rgb(98.23761%, 72.036743%, 64.927673%)" offset="0.523437"/><stop stop-opacity="1" stop-color="rgb(98.150635%, 71.815491%, 64.726257%)" offset="0.53125"/><stop stop-opacity="1" stop-color="rgb(98.062134%, 71.592712%, 64.523315%)" offset="0.539062"/><stop stop-opacity="1" stop-color="rgb(97.975159%, 71.37146%, 64.320374%)" offset="0.546875"/><stop stop-opacity="1" stop-color="rgb(97.886658%, 71.148682%, 64.117432%)" offset="0.554688"/><stop stop-opacity="1" stop-color="rgb(97.799683%, 70.925903%, 63.91449%)" offset="0.5625"/><stop stop-opacity="1" stop-color="rgb(97.711182%, 70.704651%, 63.713074%)" offset="0.570312"/><stop stop-opacity="1" stop-color="rgb(97.624207%, 70.481873%, 63.510132%)" offset="0.578125"/><stop stop-opacity="1" stop-color="rgb(97.535706%, 70.26062%, 63.30719%)" offset="0.585938"/><stop stop-opacity="1" stop-color="rgb(97.44873%, 70.037842%, 63.104248%)" offset="0.59375"/><stop stop-opacity="1" stop-color="rgb(97.360229%, 69.816589%, 62.901306%)" offset="0.601562"/><stop stop-opacity="1" stop-color="rgb(97.273254%, 69.593811%, 62.69989%)" offset="0.609375"/><stop stop-opacity="1" stop-color="rgb(97.186279%, 69.372559%, 62.496948%)" offset="0.617188"/><stop stop-opacity="1" stop-color="rgb(97.097778%, 69.14978%, 62.294006%)" offset="0.625"/><stop stop-opacity="1" stop-color="rgb(97.010803%, 68.927002%, 62.091064%)" offset="0.632812"/><stop stop-opacity="1" stop-color="rgb(96.922302%, 68.70575%, 61.889648%)" offset="0.640625"/><stop stop-opacity="1" stop-color="rgb(96.835327%, 68.482971%, 61.686707%)" offset="0.648437"/><stop stop-opacity="1" stop-color="rgb(96.746826%, 68.261719%, 61.483765%)" offset="0.65625"/><stop stop-opacity="1" stop-color="rgb(96.659851%, 68.03894%, 61.280823%)" offset="0.664062"/><stop stop-opacity="1" stop-color="rgb(96.57135%, 67.817688%, 61.077881%)" offset="0.671875"/><stop stop-opacity="1" stop-color="rgb(96.484375%, 67.59491%, 60.876465%)" offset="0.679687"/><stop stop-opacity="1" stop-color="rgb(96.395874%, 67.373657%, 60.673523%)" offset="0.6875"/><stop stop-opacity="1" stop-color="rgb(96.308899%, 67.150879%, 60.470581%)" offset="0.695312"/><stop stop-opacity="1" stop-color="rgb(96.220398%, 66.928101%, 60.267639%)" offset="0.703125"/><stop stop-opacity="1" stop-color="rgb(96.133423%, 66.706848%, 60.064697%)" offset="0.710937"/><stop stop-opacity="1" stop-color="rgb(96.046448%, 66.48407%, 59.863281%)" offset="0.71875"/><stop stop-opacity="1" stop-color="rgb(95.957947%, 66.262817%, 59.660339%)" offset="0.726562"/><stop stop-opacity="1" stop-color="rgb(95.870972%, 66.040039%, 59.457397%)" offset="0.734375"/><stop stop-opacity="1" stop-color="rgb(95.782471%, 65.818787%, 59.254456%)" offset="0.742187"/><stop stop-opacity="1" stop-color="rgb(95.695496%, 65.596008%, 59.051514%)" offset="0.75"/><stop stop-opacity="1" stop-color="rgb(95.606995%, 65.374756%, 58.850098%)" offset="0.757812"/><stop stop-opacity="1" stop-color="rgb(95.52002%, 65.151978%, 58.647156%)" offset="0.765625"/><stop stop-opacity="1" stop-color="rgb(95.431519%, 64.929199%, 58.444214%)" offset="0.773437"/><stop stop-opacity="1" stop-color="rgb(95.344543%, 64.707947%, 58.241272%)" offset="0.78125"/><stop stop-opacity="1" stop-color="rgb(95.256042%, 64.485168%, 58.039856%)" offset="0.789062"/><stop stop-opacity="1" stop-color="rgb(95.169067%, 64.263916%, 57.836914%)" offset="0.796875"/><stop stop-opacity="1" stop-color="rgb(95.082092%, 64.041138%, 57.633972%)" offset="0.804687"/><stop stop-opacity="1" stop-color="rgb(94.993591%, 63.819885%, 57.43103%)" offset="0.8125"/><stop stop-opacity="1" stop-color="rgb(94.906616%, 63.597107%, 57.228088%)" offset="0.820312"/><stop stop-opacity="1" stop-color="rgb(94.818115%, 63.374329%, 57.026672%)" offset="0.828125"/><stop stop-opacity="1" stop-color="rgb(94.73114%, 63.153076%, 56.82373%)" offset="0.835937"/><stop stop-opacity="1" stop-color="rgb(94.642639%, 62.930298%, 56.620789%)" offset="0.84375"/><stop stop-opacity="1" stop-color="rgb(94.555664%, 62.709045%, 56.417847%)" offset="0.851562"/><stop stop-opacity="1" stop-color="rgb(94.467163%, 62.486267%, 56.214905%)" offset="0.859375"/><stop stop-opacity="1" stop-color="rgb(94.380188%, 62.265015%, 56.013489%)" offset="0.867188"/><stop stop-opacity="1" stop-color="rgb(94.291687%, 62.042236%, 55.810547%)" offset="0.875"/><stop stop-opacity="1" stop-color="rgb(94.204712%, 61.820984%, 55.607605%)" offset="0.882812"/><stop stop-opacity="1" stop-color="rgb(94.116211%, 61.598206%, 55.404663%)" offset="0.890625"/><stop stop-opacity="1" stop-color="rgb(94.029236%, 61.375427%, 55.201721%)" offset="0.898437"/><stop stop-opacity="1" stop-color="rgb(93.942261%, 61.154175%, 55.000305%)" offset="0.90625"/><stop stop-opacity="1" stop-color="rgb(93.85376%, 60.931396%, 54.797363%)" offset="0.914062"/><stop stop-opacity="1" stop-color="rgb(93.766785%, 60.710144%, 54.594421%)" offset="0.921875"/><stop stop-opacity="1" stop-color="rgb(93.678284%, 60.487366%, 54.391479%)" offset="0.929687"/><stop stop-opacity="1" stop-color="rgb(93.591309%, 60.266113%, 54.188538%)" offset="0.9375"/><stop stop-opacity="1" stop-color="rgb(93.502808%, 60.043335%, 53.987122%)" offset="0.945312"/><stop stop-opacity="1" stop-color="rgb(93.415833%, 59.822083%, 53.78418%)" offset="0.953125"/><stop stop-opacity="1" stop-color="rgb(93.327332%, 59.599304%, 53.581238%)" offset="0.960938"/><stop stop-opacity="1" stop-color="rgb(93.240356%, 59.376526%, 53.378296%)" offset="0.96875"/><stop stop-opacity="1" stop-color="rgb(93.151855%, 59.155273%, 53.17688%)" offset="0.976562"/><stop stop-opacity="1" stop-color="rgb(93.06488%, 58.932495%, 52.973938%)" offset="0.984375"/><stop stop-opacity="1" stop-color="rgb(92.977905%, 58.711243%, 52.770996%)" offset="0.988459"/><stop stop-opacity="1" stop-color="rgb(92.933655%, 58.599854%, 52.670288%)" offset="0.992187"/><stop stop-opacity="1" stop-color="rgb(92.889404%, 58.488464%, 52.568054%)" offset="1"/></linearGradient><clipPath id="a0e3158118"><path d="M 2479 1523 L 2612 1523 L 2612 1656 L 2479 1656 Z M 2479 1523 " clip-rule="nonzero"/></clipPath><clipPath id="ab57eb11ba"><path d="M 2492.132812 1549.855469 L 2532.871094 1526.738281 C 2543.363281 1520.785156 2556.605469 1523.027344 2564.425781 1532.210938 C 2577.289062 1547.3125 2596.113281 1572.332031 2608.484375 1601.726562 C 2615.980469 1619.558594 2609.410156 1640.191406 2592.800781 1650.101562 C 2578.734375 1658.492188 2560.9375 1657.0625 2548.347656 1646.589844 C 2531.574219 1632.636719 2507.609375 1611.667969 2486.316406 1589.203125 C 2475.027344 1577.289062 2477.863281 1557.957031 2492.132812 1549.855469 Z M 2492.132812 1549.855469 " clip-rule="nonzero"/></clipPath><linearGradient x1="230.619628" gradientTransform="matrix(2.023633, 0, 0, 2.023633, 2130.015135, 963.65381)" y1="349.404564" x2="179.848556" gradientUnits="userSpaceOnUse" y2="269.376344" id="b5e45a0016"><stop stop-opacity="1" stop-color="rgb(79.998779%, 33.699036%, 59.199524%)" offset="0"/><stop stop-opacity="1" stop-color="rgb(79.998779%, 33.699036%, 59.199524%)" offset="0.393718"/><stop stop-opacity="1" stop-color="rgb(79.998779%, 33.699036%, 59.199524%)" offset="0.5"/><stop stop-opacity="1" stop-color="rgb(79.824829%, 33.618164%, 59.115601%)" offset="0.53125"/><stop stop-opacity="1" stop-color="rgb(79.46167%, 33.448792%, 58.940125%)" offset="0.546875"/><stop stop-opacity="1" stop-color="rgb(79.0802%, 33.27179%, 58.757019%)" offset="0.5625"/><stop stop-opacity="1" stop-color="rgb(78.700256%, 33.094788%, 58.573914%)" offset="0.578125"/><stop stop-opacity="1" stop-color="rgb(78.318787%, 32.917786%, 58.390808%)" offset="0.59375"/><stop stop-opacity="1" stop-color="rgb(77.938843%, 32.740784%, 58.207703%)" offset="0.606282"/><stop stop-opacity="1" stop-color="rgb(77.748108%, 32.652283%, 58.11615%)" offset="0.609375"/><stop stop-opacity="1" stop-color="rgb(77.557373%, 32.563782%, 58.023071%)" offset="0.625"/><stop stop-opacity="1" stop-color="rgb(77.177429%, 32.38678%, 57.839966%)" offset="0.640625"/><stop stop-opacity="1" stop-color="rgb(76.795959%, 32.209778%, 57.65686%)" offset="0.65625"/><stop stop-opacity="1" stop-color="rgb(76.416016%, 32.032776%, 57.473755%)" offset="0.671875"/><stop stop-opacity="1" stop-color="rgb(76.034546%, 31.855774%, 57.290649%)" offset="0.6875"/><stop stop-opacity="1" stop-color="rgb(75.654602%, 31.678772%, 57.107544%)" offset="0.703125"/><stop stop-opacity="1" stop-color="rgb(75.273132%, 31.50177%, 56.924438%)" offset="0.71875"/><stop stop-opacity="1" stop-color="rgb(74.893188%, 31.324768%, 56.739807%)" offset="0.734375"/><stop stop-opacity="1" stop-color="rgb(74.511719%, 31.147766%, 56.556702%)" offset="0.75"/><stop stop-opacity="1" stop-color="rgb(74.131775%, 30.970764%, 56.373596%)" offset="0.765625"/><stop stop-opacity="1" stop-color="rgb(73.750305%, 30.793762%, 56.190491%)" offset="0.78125"/><stop stop-opacity="1" stop-color="rgb(73.368835%, 30.61676%, 56.007385%)" offset="0.796875"/><stop stop-opacity="1" stop-color="rgb(72.988892%, 30.439758%, 55.82428%)" offset="0.8125"/><stop stop-opacity="1" stop-color="rgb(72.607422%, 30.262756%, 55.641174%)" offset="0.828125"/><stop stop-opacity="1" stop-color="rgb(72.227478%, 30.085754%, 55.458069%)" offset="0.84375"/><stop stop-opacity="1" stop-color="rgb(71.846008%, 29.908752%, 55.273438%)" offset="0.859375"/><stop stop-opacity="1" stop-color="rgb(71.466064%, 29.73175%, 55.090332%)" offset="0.875"/><stop stop-opacity="1" stop-color="rgb(71.084595%, 29.554749%, 54.907227%)" offset="0.890625"/><stop stop-opacity="1" stop-color="rgb(70.704651%, 29.377747%, 54.724121%)" offset="0.90625"/><stop stop-opacity="1" stop-color="rgb(70.323181%, 29.200745%, 54.541016%)" offset="0.921875"/><stop stop-opacity="1" stop-color="rgb(69.943237%, 29.023743%, 54.35791%)" offset="0.9375"/><stop stop-opacity="1" stop-color="rgb(69.561768%, 28.846741%, 54.174805%)" offset="0.953125"/><stop stop-opacity="1" stop-color="rgb(69.181824%, 28.668213%, 53.990173%)" offset="0.96875"/><stop stop-opacity="1" stop-color="rgb(68.800354%, 28.491211%, 53.807068%)" offset="0.984375"/><stop stop-opacity="1" stop-color="rgb(68.42041%, 28.314209%, 53.623962%)" offset="1"/></linearGradient><clipPath id="cc25d0236b"><path d="M 2818 1559 L 2878 1559 L 2878 1662 L 2818 1662 Z M 2818 1559 " clip-rule="nonzero"/></clipPath><clipPath id="eb927a3f73"><path d="M 2818.613281 1568.460938 L 2820.402344 1638.160156 C 2820.703125 1649.980469 2829.65625 1659.78125 2841.402344 1661.144531 C 2852.023438 1662.378906 2862.199219 1656.402344 2866.164062 1646.472656 C 2870.289062 1636.140625 2874.96875 1622.167969 2876.992188 1607.976562 C 2877.953125 1601.253906 2875.417969 1594.515625 2870.429688 1589.902344 C 2862.449219 1582.53125 2848.542969 1570.929688 2830.699219 1561.003906 C 2825.199219 1557.945312 2818.453125 1562.167969 2818.613281 1568.460938 Z M 2818.613281 1568.460938 " clip-rule="nonzero"/></clipPath><linearGradient x1="343.679547" gradientTransform="matrix(2.023633, 0, 0, 2.023633, 2130.015135, 963.65381)" y1="346.325827" x2="360.310724" gradientUnits="userSpaceOnUse" y2="290.88859" id="3c78285698"><stop stop-opacity="1" stop-color="rgb(79.998779%, 33.699036%, 59.199524%)" offset="0"/><stop stop-opacity="1" stop-color="rgb(79.998779%, 33.699036%, 59.199524%)" offset="0.145972"/><stop stop-opacity="1" stop-color="rgb(79.998779%, 33.699036%, 59.199524%)" offset="0.25"/><stop stop-opacity="1" stop-color="rgb(79.998779%, 33.699036%, 59.199524%)" offset="0.28125"/><stop stop-opacity="1" stop-color="rgb(79.823303%, 33.618164%, 59.115601%)" offset="0.296875"/><stop stop-opacity="1" stop-color="rgb(79.473877%, 33.454895%, 58.946228%)" offset="0.3125"/><stop stop-opacity="1" stop-color="rgb(79.124451%, 33.291626%, 58.778381%)" offset="0.328125"/><stop stop-opacity="1" stop-color="rgb(78.773499%, 33.128357%, 58.609009%)" offset="0.34375"/><stop stop-opacity="1" stop-color="rgb(78.424072%, 32.966614%, 58.439636%)" offset="0.359375"/><stop stop-opacity="1" stop-color="rgb(78.07312%, 32.803345%, 58.27179%)" offset="0.375"/><stop stop-opacity="1" stop-color="rgb(77.722168%, 32.640076%, 58.102417%)" offset="0.390625"/><stop stop-opacity="1" stop-color="rgb(77.372742%, 32.476807%, 57.93457%)" offset="0.40625"/><stop stop-opacity="1" stop-color="rgb(77.02179%, 32.313538%, 57.765198%)" offset="0.421875"/><stop stop-opacity="1" stop-color="rgb(76.670837%, 32.151794%, 57.597351%)" offset="0.4375"/><stop stop-opacity="1" stop-color="rgb(76.321411%, 31.988525%, 57.427979%)" offset="0.453125"/><stop stop-opacity="1" stop-color="rgb(75.970459%, 31.825256%, 57.258606%)" offset="0.46875"/><stop stop-opacity="1" stop-color="rgb(75.619507%, 31.661987%, 57.090759%)" offset="0.484375"/><stop stop-opacity="1" stop-color="rgb(75.270081%, 31.498718%, 56.921387%)" offset="0.5"/><stop stop-opacity="1" stop-color="rgb(74.919128%, 31.336975%, 56.75354%)" offset="0.515625"/><stop stop-opacity="1" stop-color="rgb(74.569702%, 31.173706%, 56.584167%)" offset="0.53125"/><stop stop-opacity="1" stop-color="rgb(74.21875%, 31.010437%, 56.416321%)" offset="0.546875"/><stop stop-opacity="1" stop-color="rgb(73.867798%, 30.847168%, 56.246948%)" offset="0.5625"/><stop stop-opacity="1" stop-color="rgb(73.518372%, 30.685425%, 56.077576%)" offset="0.578125"/><stop stop-opacity="1" stop-color="rgb(73.167419%, 30.522156%, 55.909729%)" offset="0.59375"/><stop stop-opacity="1" stop-color="rgb(72.816467%, 30.358887%, 55.740356%)" offset="0.609375"/><stop stop-opacity="1" stop-color="rgb(72.467041%, 30.195618%, 55.57251%)" offset="0.625"/><stop stop-opacity="1" stop-color="rgb(72.116089%, 30.032349%, 55.403137%)" offset="0.640625"/><stop stop-opacity="1" stop-color="rgb(71.765137%, 29.870605%, 55.235291%)" offset="0.65625"/><stop stop-opacity="1" stop-color="rgb(71.41571%, 29.707336%, 55.065918%)" offset="0.671875"/><stop stop-opacity="1" stop-color="rgb(71.064758%, 29.544067%, 54.896545%)" offset="0.6875"/><stop stop-opacity="1" stop-color="rgb(70.713806%, 29.380798%, 54.728699%)" offset="0.703125"/><stop stop-opacity="1" stop-color="rgb(70.36438%, 29.217529%, 54.559326%)" offset="0.71875"/><stop stop-opacity="1" stop-color="rgb(70.013428%, 29.055786%, 54.391479%)" offset="0.734375"/><stop stop-opacity="1" stop-color="rgb(69.664001%, 28.892517%, 54.222107%)" offset="0.75"/><stop stop-opacity="1" stop-color="rgb(69.313049%, 28.729248%, 54.05426%)" offset="0.765625"/><stop stop-opacity="1" stop-color="rgb(68.962097%, 28.565979%, 53.884888%)" offset="0.78125"/><stop stop-opacity="1" stop-color="rgb(68.612671%, 28.404236%, 53.715515%)" offset="0.796875"/><stop stop-opacity="1" stop-color="rgb(68.261719%, 28.240967%, 53.547668%)" offset="0.8125"/><stop stop-opacity="1" stop-color="rgb(67.910767%, 28.077698%, 53.378296%)" offset="0.828125"/><stop stop-opacity="1" stop-color="rgb(67.56134%, 27.914429%, 53.210449%)" offset="0.84375"/><stop stop-opacity="1" stop-color="rgb(67.210388%, 27.75116%, 53.041077%)" offset="0.854028"/><stop stop-opacity="1" stop-color="rgb(67.034912%, 27.670288%, 52.957153%)" offset="0.859375"/><stop stop-opacity="1" stop-color="rgb(66.859436%, 27.589417%, 52.87323%)" offset="0.875"/><stop stop-opacity="1" stop-color="rgb(66.51001%, 27.426147%, 52.703857%)" offset="0.890625"/><stop stop-opacity="1" stop-color="rgb(66.159058%, 27.262878%, 52.534485%)" offset="0.90625"/><stop stop-opacity="1" stop-color="rgb(65.808105%, 27.099609%, 52.366638%)" offset="0.921875"/><stop stop-opacity="1" stop-color="rgb(65.458679%, 26.93634%, 52.197266%)" offset="0.9375"/><stop stop-opacity="1" stop-color="rgb(65.107727%, 26.774597%, 52.029419%)" offset="0.953125"/><stop stop-opacity="1" stop-color="rgb(64.758301%, 26.611328%, 51.860046%)" offset="0.96875"/><stop stop-opacity="1" stop-color="rgb(64.407349%, 26.448059%, 51.6922%)" offset="0.984375"/><stop stop-opacity="1" stop-color="rgb(64.056396%, 26.28479%, 51.522827%)" offset="1"/></linearGradient><clipPath id="3ebe2bf287"><path d="M 2440 968 L 2700 968 L 2700 1446 L 2440 1446 Z M 2440 968 " clip-rule="nonzero"/></clipPath><clipPath id="0c96b39a4e"><path d="M 2699.445312 1059.480469 C 2699.445312 1009.351562 2658.8125 968.722656 2608.6875 968.722656 C 2515.601562 968.722656 2440.140625 1044.183594 2440.140625 1137.269531 L 2440.140625 1409.542969 C 2440.140625 1429.371094 2456.210938 1445.445312 2476.042969 1445.445312 C 2495.871094 1445.445312 2511.945312 1429.371094 2511.945312 1409.542969 L 2511.945312 1366.160156 C 2511.945312 1357.070312 2519.3125 1349.703125 2528.402344 1349.703125 C 2537.488281 1349.703125 2544.859375 1357.070312 2544.859375 1366.160156 L 2544.859375 1381.617188 C 2544.859375 1393.734375 2554.679688 1403.558594 2566.800781 1403.558594 C 2578.917969 1403.558594 2588.742188 1393.738281 2588.742188 1381.617188 L 2588.742188 1268.917969 C 2588.742188 1268.917969 2585.75 1118.320312 2699.445312 1059.480469 Z M 2699.445312 1059.480469 " clip-rule="nonzero"/></clipPath><linearGradient x1="217.32001" gradientTransform="matrix(2.023633, 0, 0, 2.023633, 2130.015135, 963.65381)" y1="2.503985" x2="217.32001" gradientUnits="userSpaceOnUse" y2="238.082959" id="f917ae46c8"><stop stop-opacity="1" stop-color="rgb(79.998779%, 33.699036%, 59.199524%)" offset="0"/><stop stop-opacity="1" stop-color="rgb(79.969788%, 33.685303%, 59.185791%)" offset="0.5"/><stop stop-opacity="1" stop-color="rgb(79.788208%, 33.601379%, 59.09729%)" offset="0.515625"/><stop stop-opacity="1" stop-color="rgb(79.483032%, 33.459473%, 58.950806%)" offset="0.53125"/><stop stop-opacity="1" stop-color="rgb(79.176331%, 33.31604%, 58.802795%)" offset="0.546875"/><stop stop-opacity="1" stop-color="rgb(78.869629%, 33.174133%, 58.654785%)" offset="0.5625"/><stop stop-opacity="1" stop-color="rgb(78.562927%, 33.030701%, 58.508301%)" offset="0.578125"/><stop stop-opacity="1" stop-color="rgb(78.256226%, 32.888794%, 58.360291%)" offset="0.59375"/><stop stop-opacity="1" stop-color="rgb(77.95105%, 32.746887%, 58.21228%)" offset="0.609375"/><stop stop-opacity="1" stop-color="rgb(77.644348%, 32.603455%, 58.06427%)" offset="0.625"/><stop stop-opacity="1" stop-color="rgb(77.337646%, 32.461548%, 57.917786%)" offset="0.640625"/><stop stop-opacity="1" stop-color="rgb(77.030945%, 32.318115%, 57.769775%)" offset="0.65625"/><stop stop-opacity="1" stop-color="rgb(76.724243%, 32.176208%, 57.621765%)" offset="0.671875"/><stop stop-opacity="1" stop-color="rgb(76.419067%, 32.034302%, 57.475281%)" offset="0.6875"/><stop stop-opacity="1" stop-color="rgb(76.112366%, 31.890869%, 57.327271%)" offset="0.703125"/><stop stop-opacity="1" stop-color="rgb(75.805664%, 31.748962%, 57.17926%)" offset="0.71875"/><stop stop-opacity="1" stop-color="rgb(75.498962%, 31.607056%, 57.032776%)" offset="0.734375"/><stop stop-opacity="1" stop-color="rgb(75.192261%, 31.463623%, 56.884766%)" offset="0.75"/><stop stop-opacity="1" stop-color="rgb(74.885559%, 31.321716%, 56.736755%)" offset="0.765625"/><stop stop-opacity="1" stop-color="rgb(74.580383%, 31.178284%, 56.590271%)" offset="0.78125"/><stop stop-opacity="1" stop-color="rgb(74.273682%, 31.036377%, 56.442261%)" offset="0.796875"/><stop stop-opacity="1" stop-color="rgb(73.96698%, 30.89447%, 56.29425%)" offset="0.8125"/><stop stop-opacity="1" stop-color="rgb(73.660278%, 30.751038%, 56.147766%)" offset="0.828125"/><stop stop-opacity="1" stop-color="rgb(73.353577%, 30.609131%, 55.999756%)" offset="0.84375"/><stop stop-opacity="1" stop-color="rgb(73.048401%, 30.467224%, 55.851746%)" offset="0.859375"/><stop stop-opacity="1" stop-color="rgb(72.741699%, 30.323792%, 55.705261%)" offset="0.875"/><stop stop-opacity="1" stop-color="rgb(72.434998%, 30.181885%, 55.557251%)" offset="0.890625"/><stop stop-opacity="1" stop-color="rgb(72.128296%, 30.038452%, 55.409241%)" offset="0.90625"/><stop stop-opacity="1" stop-color="rgb(71.821594%, 29.896545%, 55.26123%)" offset="0.921875"/><stop stop-opacity="1" stop-color="rgb(71.516418%, 29.754639%, 55.114746%)" offset="0.9375"/><stop stop-opacity="1" stop-color="rgb(71.209717%, 29.611206%, 54.966736%)" offset="0.953125"/><stop stop-opacity="1" stop-color="rgb(70.903015%, 29.469299%, 54.818726%)" offset="0.96875"/><stop stop-opacity="1" stop-color="rgb(70.596313%, 29.325867%, 54.672241%)" offset="0.984375"/><stop stop-opacity="1" stop-color="rgb(70.289612%, 29.18396%, 54.524231%)" offset="1"/></linearGradient><clipPath id="a8b7fe6e1f"><path d="M 2617 1326 L 2893 1326 L 2893 1517 L 2617 1517 Z M 2617 1326 " clip-rule="nonzero"/></clipPath><clipPath id="a24f94bed0"><path d="M 2617.148438 1343.878906 L 2632.851562 1409.085938 C 2635.699219 1420.910156 2642.574219 1431.394531 2652.375 1438.589844 C 2676.003906 1455.925781 2725.679688 1488.742188 2791.761719 1512.707031 C 2799.566406 1515.535156 2807.847656 1516.847656 2816.152344 1516.847656 L 2833.222656 1516.847656 C 2845.128906 1516.847656 2855.886719 1509.882812 2860.746094 1499.011719 C 2870.445312 1477.3125 2885.605469 1436.65625 2892.933594 1381.691406 L 2637.90625 1326.179688 Z M 2617.148438 1343.878906 " clip-rule="nonzero"/></clipPath><linearGradient x1="358.595343" gradientTransform="matrix(2.023633, 0, 0, 2.023633, 2130.015135, 963.65381)" y1="285.319023" x2="275.146443" gradientUnits="userSpaceOnUse" y2="156.794662" id="5db84eb150"><stop stop-opacity="1" stop-color="rgb(100%, 76.499939%, 68.998718%)" offset="0"/><stop stop-opacity="1" stop-color="rgb(100%, 76.499939%, 68.998718%)" offset="0.25"/><stop stop-opacity="1" stop-color="rgb(99.971008%, 76.426697%, 68.933105%)" offset="0.28125"/><stop stop-opacity="1" stop-color="rgb(99.87793%, 76.191711%, 68.717957%)" offset="0.296875"/><stop stop-opacity="1" stop-color="rgb(99.74823%, 75.865173%, 68.42041%)" offset="0.3125"/><stop stop-opacity="1" stop-color="rgb(99.620056%, 75.540161%, 68.122864%)" offset="0.328125"/><stop stop-opacity="1" stop-color="rgb(99.491882%, 75.213623%, 67.825317%)" offset="0.34375"/><stop stop-opacity="1" stop-color="rgb(99.362183%, 74.887085%, 67.527771%)" offset="0.359375"/><stop stop-opacity="1" stop-color="rgb(99.234009%, 74.560547%, 67.230225%)" offset="0.375"/><stop stop-opacity="1" stop-color="rgb(99.104309%, 74.234009%, 66.932678%)" offset="0.390625"/><stop stop-opacity="1" stop-color="rgb(98.976135%, 73.908997%, 66.635132%)" offset="0.40625"/><stop stop-opacity="1" stop-color="rgb(98.847961%, 73.582458%, 66.337585%)" offset="0.421875"/><stop stop-opacity="1" stop-color="rgb(98.718262%, 73.25592%, 66.040039%)" offset="0.4375"/><stop stop-opacity="1" stop-color="rgb(98.590088%, 72.929382%, 65.742493%)" offset="0.453125"/><stop stop-opacity="1" stop-color="rgb(98.460388%, 72.602844%, 65.444946%)" offset="0.46875"/><stop stop-opacity="1" stop-color="rgb(98.332214%, 72.277832%, 65.1474%)" offset="0.484309"/><stop stop-opacity="1" stop-color="rgb(98.268127%, 72.114563%, 64.99939%)" offset="0.484375"/><stop stop-opacity="1" stop-color="rgb(98.204041%, 71.951294%, 64.849854%)" offset="0.5"/><stop stop-opacity="1" stop-color="rgb(98.074341%, 71.624756%, 64.552307%)" offset="0.515625"/><stop stop-opacity="1" stop-color="rgb(97.946167%, 71.298218%, 64.253235%)" offset="0.515691"/><stop stop-opacity="1" stop-color="rgb(97.88208%, 71.134949%, 64.105225%)" offset="0.53125"/><stop stop-opacity="1" stop-color="rgb(97.816467%, 70.97168%, 63.955688%)" offset="0.546875"/><stop stop-opacity="1" stop-color="rgb(97.688293%, 70.645142%, 63.658142%)" offset="0.5625"/><stop stop-opacity="1" stop-color="rgb(97.56012%, 70.320129%, 63.360596%)" offset="0.578125"/><stop stop-opacity="1" stop-color="rgb(97.43042%, 69.993591%, 63.063049%)" offset="0.59375"/><stop stop-opacity="1" stop-color="rgb(97.302246%, 69.667053%, 62.765503%)" offset="0.609375"/><stop stop-opacity="1" stop-color="rgb(97.172546%, 69.340515%, 62.467957%)" offset="0.625"/><stop stop-opacity="1" stop-color="rgb(97.044373%, 69.013977%, 62.17041%)" offset="0.640625"/><stop stop-opacity="1" stop-color="rgb(96.916199%, 68.688965%, 61.872864%)" offset="0.65625"/><stop stop-opacity="1" stop-color="rgb(96.786499%, 68.362427%, 61.575317%)" offset="0.671875"/><stop stop-opacity="1" stop-color="rgb(96.658325%, 68.035889%, 61.277771%)" offset="0.6875"/><stop stop-opacity="1" stop-color="rgb(96.528625%, 67.709351%, 60.980225%)" offset="0.703125"/><stop stop-opacity="1" stop-color="rgb(96.400452%, 67.382812%, 60.682678%)" offset="0.71875"/><stop stop-opacity="1" stop-color="rgb(96.272278%, 67.056274%, 60.385132%)" offset="0.734375"/><stop stop-opacity="1" stop-color="rgb(96.142578%, 66.731262%, 60.087585%)" offset="0.75"/><stop stop-opacity="1" stop-color="rgb(96.014404%, 66.404724%, 59.790039%)" offset="0.765625"/><stop stop-opacity="1" stop-color="rgb(95.884705%, 66.078186%, 59.492493%)" offset="0.78125"/><stop stop-opacity="1" stop-color="rgb(95.756531%, 65.751648%, 59.19342%)" offset="0.796875"/><stop stop-opacity="1" stop-color="rgb(95.628357%, 65.42511%, 58.895874%)" offset="0.8125"/><stop stop-opacity="1" stop-color="rgb(95.498657%, 65.100098%, 58.598328%)" offset="0.828125"/><stop stop-opacity="1" stop-color="rgb(95.370483%, 64.77356%, 58.300781%)" offset="0.84375"/><stop stop-opacity="1" stop-color="rgb(95.240784%, 64.447021%, 58.003235%)" offset="0.859375"/><stop stop-opacity="1" stop-color="rgb(95.11261%, 64.120483%, 57.705688%)" offset="0.875"/><stop stop-opacity="1" stop-color="rgb(94.984436%, 63.793945%, 57.408142%)" offset="0.890625"/><stop stop-opacity="1" stop-color="rgb(94.854736%, 63.468933%, 57.110596%)" offset="0.90625"/><stop stop-opacity="1" stop-color="rgb(94.726562%, 63.142395%, 56.813049%)" offset="0.921875"/><stop stop-opacity="1" stop-color="rgb(94.596863%, 62.815857%, 56.515503%)" offset="0.9375"/><stop stop-opacity="1" stop-color="rgb(94.468689%, 62.489319%, 56.217957%)" offset="0.953125"/><stop stop-opacity="1" stop-color="rgb(94.340515%, 62.162781%, 55.92041%)" offset="0.96875"/><stop stop-opacity="1" stop-color="rgb(94.210815%, 61.836243%, 55.622864%)" offset="0.984375"/><stop stop-opacity="1" stop-color="rgb(94.082642%, 61.51123%, 55.325317%)" offset="1"/></linearGradient><clipPath id="30814386d8"><path d="M 2804.398438 734.359375 L 3166.511719 734.359375 L 3166.511719 1010.957031 L 2804.398438 1010.957031 Z M 2804.398438 734.359375 " clip-rule="nonzero"/></clipPath><clipPath id="8bf5eac46e"><path d="M 2073 642 L 2501 642 L 2501 996 L 2073 996 Z M 2073 642 " clip-rule="nonzero"/></clipPath><clipPath id="83ca360cea"><path d="M 2017.585938 841.820312 L 2398.1875 590.984375 L 2604.054688 903.351562 L 2223.453125 1154.1875 Z M 2017.585938 841.820312 " clip-rule="nonzero"/></clipPath><clipPath id="8e48d29b28"><path d="M 2017.585938 841.820312 L 2398.1875 590.984375 L 2604.054688 903.351562 L 2223.453125 1154.1875 Z M 2017.585938 841.820312 " clip-rule="nonzero"/></clipPath><clipPath id="07ca8fffbd"><path d="M 2017.585938 841.820312 L 2398.1875 590.984375 L 2604.054688 903.351562 L 2223.453125 1154.1875 Z M 2017.585938 841.820312 " clip-rule="nonzero"/></clipPath><clipPath id="46d051e5e5"><path d="M 2169 870 L 2178 870 L 2178 898 L 2169 898 Z M 2169 870 " clip-rule="nonzero"/></clipPath><clipPath id="02bf1c56a7"><path d="M 2017.585938 841.820312 L 2398.1875 590.984375 L 2604.054688 903.351562 L 2223.453125 1154.1875 Z M 2017.585938 841.820312 " clip-rule="nonzero"/></clipPath><clipPath id="88415c7da7"><path d="M 2017.585938 841.820312 L 2398.1875 590.984375 L 2604.054688 903.351562 L 2223.453125 1154.1875 Z M 2017.585938 841.820312 " clip-rule="nonzero"/></clipPath><clipPath id="80858b6513"><path d="M 2017.585938 841.820312 L 2398.1875 590.984375 L 2604.054688 903.351562 L 2223.453125 1154.1875 Z M 2017.585938 841.820312 " clip-rule="nonzero"/></clipPath><clipPath id="1c75b327c3"><path d="M 2845.019531 1053.917969 L 3045.945312 1053.917969 L 3045.945312 1254.839844 L 2845.019531 1254.839844 Z M 2845.019531 1053.917969 " clip-rule="nonzero"/></clipPath></defs><path fill="#375dab" d="M 2933.632812 1493.472656 C 2933.632812 1493.472656 2893.863281 1473.371094 2847.902344 1601.597656 L 2926.917969 1683.386719 C 2926.917969 1683.386719 2982.84375 1559.117188 2933.632812 1493.472656 Z M 2933.632812 1493.472656 " fill-opacity="1" fill-rule="nonzero"/><g clip-path="url(#cd81e61161)"><g clip-path="url(#a4c2952316)"><path fill="url(#4152e400e4)" d="M 2511.183594 1343.878906 L 2511.183594 1728.8125 L 2858.65625 1728.8125 L 2858.65625 1343.878906 Z M 2511.183594 1343.878906 " fill-rule="nonzero"/></g></g><path fill="#e8897b" d="M 2790.949219 1500.855469 L 2617.144531 1343.878906 L 2617.144531 1429.261719 C 2617.144531 1430.40625 2617.058594 1431.539062 2617.015625 1432.679688 L 2823.746094 1649.054688 L 2858.65625 1597.132812 C 2858.65625 1597.128906 2786.320312 1571.675781 2790.949219 1500.855469 Z M 2790.949219 1500.855469 " fill-opacity="1" fill-rule="nonzero"/><path fill="#375dab" d="M 2511.179688 1596.023438 C 2511.179688 1596.023438 2632.90625 1683.441406 2770.125 1728.8125 L 2858.65625 1597.128906 C 2858.65625 1597.128906 2835.378906 1588.921875 2816.078125 1568.902344 C 2811.929688 1578.476562 2805.917969 1586.1875 2799.503906 1592.238281 C 2785.390625 1605.550781 2766.589844 1612.640625 2747.246094 1614.148438 C 2648.335938 1621.871094 2576.289062 1557.605469 2558.984375 1540.492188 C 2543.636719 1560.273438 2526.960938 1580.242188 2511.179688 1596.023438 Z M 2511.179688 1596.023438 " fill-opacity="1" fill-rule="nonzero"/><path fill="#ffffff" d="M 2410.550781 1682.941406 L 2542.609375 1560.972656 C 2542.609375 1560.972656 2646.613281 1653.683594 2750.496094 1691.859375 C 2757.078125 1694.273438 2764.480469 1692.25 2769.078125 1686.960938 C 2783.675781 1670.171875 2814.617188 1631.601562 2825.457031 1594.917969 L 2858.65625 1597.132812 C 2858.65625 1597.132812 2892.753906 1635.601562 2922.871094 1660.472656 C 2930.667969 1666.914062 2936.382812 1675.46875 2938.9375 1685.253906 C 2951.375 1732.855469 2971.785156 1876.085938 2811.128906 1989.21875 C 2805.976562 1992.84375 2799.785156 1994.699219 2793.488281 1994.6875 C 2758.320312 1994.636719 2638.195312 1985.628906 2539.5625 1872.675781 C 2539.5625 1872.675781 2487.855469 1815.644531 2427.832031 1788.976562 C 2406.578125 1779.535156 2392.195312 1759.238281 2390.097656 1736.074219 C 2388.296875 1716.144531 2395.855469 1696.511719 2410.550781 1682.941406 Z M 2410.550781 1682.941406 " fill-opacity="1" fill-rule="nonzero"/><path fill="#cde0ff" d="M 2922.871094 1660.472656 C 2892.753906 1635.597656 2858.65625 1597.128906 2858.65625 1597.128906 L 2825.515625 1594.921875 L 2825.429688 1594.996094 C 2814.910156 1630.507812 2785.632812 1667.703125 2770.546875 1685.253906 C 2786.367188 1914.582031 2617.574219 1899.390625 2550.308594 1884.4375 C 2646.742188 1986.230469 2759.589844 1994.636719 2793.492188 1994.6875 C 2799.792969 1994.699219 2805.980469 1992.84375 2811.132812 1989.21875 C 2971.789062 1876.082031 2951.378906 1732.855469 2938.941406 1685.253906 C 2936.382812 1675.464844 2930.667969 1666.910156 2922.871094 1660.472656 Z M 2922.871094 1660.472656 " fill-opacity="1" fill-rule="nonzero"/><path fill="#afc8ff" d="M 2938.941406 1685.253906 C 2936.382812 1675.464844 2930.667969 1666.914062 2922.871094 1660.472656 C 2892.753906 1635.597656 2858.65625 1597.128906 2858.65625 1597.128906 L 2825.457031 1594.917969 C 2814.621094 1631.601562 2783.679688 1670.171875 2769.082031 1686.960938 C 2766.929688 1689.433594 2764.15625 1691.15625 2761.148438 1692.082031 C 2803.972656 1820.488281 2800.824219 1953.847656 2798.625 1994.246094 C 2803.101562 1993.515625 2807.394531 1991.84375 2811.132812 1989.214844 C 2971.789062 1876.082031 2951.378906 1732.855469 2938.941406 1685.253906 Z M 2938.941406 1685.253906 " fill-opacity="1" fill-rule="nonzero"/><g clip-path="url(#a0e3158118)"><g clip-path="url(#ab57eb11ba)"><path fill="url(#b5e45a0016)" d="M 2475.027344 1520.785156 L 2475.027344 1658.492188 L 2615.980469 1658.492188 L 2615.980469 1520.785156 Z M 2475.027344 1520.785156 " fill-rule="nonzero"/></g></g><g clip-path="url(#cc25d0236b)"><g clip-path="url(#eb927a3f73)"><path fill="url(#3c78285698)" d="M 2818.453125 1557.945312 L 2818.453125 1662.378906 L 2877.953125 1662.378906 L 2877.953125 1557.945312 Z M 2818.453125 1557.945312 " fill-rule="nonzero"/></g></g><path fill="#eef5ff" d="M 2389.003906 1460.703125 C 2432.535156 1484.804688 2524.679688 1553.234375 2527.839844 1701.746094 C 2527.964844 1707.5625 2526.597656 1713.316406 2524.011719 1718.523438 C 2511.847656 1743.019531 2468.648438 1810.386719 2357.710938 1821.007812 C 2347.996094 1821.9375 2338.378906 1818.269531 2331.800781 1811.058594 C 2316.785156 1794.601562 2285.1875 1763.707031 2245.402344 1745.785156 C 2234.09375 1740.6875 2227.386719 1728.789062 2228.835938 1716.472656 C 2233.527344 1676.566406 2254 1593.597656 2342.351562 1554.015625 C 2352.894531 1549.292969 2360.808594 1540.269531 2363.820312 1529.113281 C 2367.371094 1515.972656 2370.75 1496.605469 2369.386719 1473.015625 C 2368.789062 1462.617188 2379.894531 1455.65625 2389.003906 1460.703125 Z M 2389.003906 1460.703125 " fill-opacity="1" fill-rule="nonzero"/><path fill="#c7daff" d="M 2524.011719 1718.523438 C 2526.597656 1713.316406 2527.964844 1707.5625 2527.84375 1701.746094 C 2524.753906 1556.621094 2436.726562 1487.996094 2392.085938 1462.445312 C 2435.339844 1519.214844 2551.753906 1703.992188 2319.507812 1798.371094 C 2324.300781 1803.074219 2328.515625 1807.453125 2331.804688 1811.058594 C 2338.382812 1818.269531 2348 1821.9375 2357.714844 1821.007812 C 2468.652344 1810.386719 2511.851562 1743.019531 2524.011719 1718.523438 Z M 2524.011719 1718.523438 " fill-opacity="1" fill-rule="nonzero"/><path fill="#ffffff" d="M 2303.308594 1623.546875 C 2307.125 1615.175781 2314.136719 1605.578125 2327.027344 1598.582031 C 2327.585938 1598.277344 2328.175781 1598 2328.777344 1597.78125 C 2331.398438 1596.804688 2339.308594 1594.164062 2348.128906 1594.128906 C 2357.59375 1594.09375 2363.691406 1604.226562 2359.03125 1612.464844 C 2353.003906 1623.105469 2340.839844 1636.460938 2316.917969 1640.574219 C 2307.175781 1642.242188 2299.203125 1632.546875 2303.308594 1623.546875 Z M 2303.308594 1623.546875 " fill-opacity="1" fill-rule="nonzero"/><g clip-path="url(#3ebe2bf287)"><g clip-path="url(#0c96b39a4e)"><path fill="url(#f917ae46c8)" d="M 2440.140625 968.722656 L 2440.140625 1445.445312 L 2699.445312 1445.445312 L 2699.445312 968.722656 Z M 2440.140625 968.722656 " fill-rule="nonzero"/></g></g><path fill="#a03774" d="M 2608.6875 968.722656 C 2584.046875 968.722656 2560.667969 974.050781 2539.566406 983.554688 C 2580.121094 992.191406 2641.179688 1020.296875 2620.367188 1111.742188 L 2634.058594 1117.214844 C 2649.78125 1094.75 2670.945312 1074.230469 2699.445312 1059.480469 C 2699.445312 1009.351562 2658.8125 968.722656 2608.6875 968.722656 Z M 2608.6875 968.722656 " fill-opacity="1" fill-rule="nonzero"/><path fill="#eef5ff" d="M 2594.46875 1326.179688 C 2594.46875 1326.179688 2558.9375 1310.117188 2555.261719 1248.09375 C 2552.683594 1204.613281 2565.972656 1161.449219 2591.683594 1126.289062 C 2602.054688 1112.109375 2615.5 1097.121094 2632.617188 1083.707031 C 2697.601562 1032.789062 2788.761719 1030.789062 2856.414062 1078.101562 C 2886.140625 1098.890625 2912.941406 1130.976562 2921.226562 1180.320312 C 2922.351562 1187.019531 2922.863281 1193.804688 2923.144531 1200.589844 C 2924.050781 1222.6875 2923.914062 1269.386719 2908.21875 1288.910156 Z M 2594.46875 1326.179688 " fill-opacity="1" fill-rule="nonzero"/><path fill="#c7daff" d="M 2908.21875 1288.910156 C 2923.914062 1269.386719 2924.050781 1222.6875 2923.144531 1200.589844 C 2922.863281 1193.804688 2922.351562 1187.019531 2921.226562 1180.320312 C 2912.9375 1130.976562 2886.140625 1098.894531 2856.414062 1078.101562 C 2817.671875 1051.007812 2771.234375 1040.164062 2726.410156 1045.335938 C 2772.867188 1064.890625 2847.027344 1128.492188 2658.453125 1318.578125 Z M 2908.21875 1288.910156 " fill-opacity="1" fill-rule="nonzero"/><path fill="#ffffff" d="M 2584.496094 1206.429688 C 2586.851562 1192.105469 2595.082031 1156.285156 2620.792969 1132.152344 C 2627.3125 1126.03125 2637.234375 1125.242188 2644.640625 1130.253906 C 2653.351562 1136.148438 2655.652344 1147.949219 2649.796875 1156.691406 C 2638.890625 1172.972656 2620.679688 1198.238281 2602 1215.746094 C 2598.25 1219.261719 2592.511719 1219.523438 2588.4375 1216.382812 C 2585.386719 1214.03125 2583.871094 1210.234375 2584.496094 1206.429688 Z M 2584.496094 1206.429688 " fill-opacity="1" fill-rule="nonzero"/><g clip-path="url(#a8b7fe6e1f)"><g clip-path="url(#a24f94bed0)"><path fill="url(#5db84eb150)" d="M 2617.148438 1326.179688 L 2617.148438 1516.847656 L 2892.933594 1516.847656 L 2892.933594 1326.179688 Z M 2617.148438 1326.179688 " fill-rule="nonzero"/></g></g><path fill="#e8897b" d="M 2667.671875 1332.65625 L 2661.898438 1350.316406 C 2661.898438 1350.316406 2735.871094 1397.792969 2805.992188 1427.078125 C 2819.796875 1432.84375 2829.113281 1446.050781 2829.292969 1461.007812 C 2829.449219 1474.476562 2828.886719 1493.183594 2826.324219 1516.847656 L 2833.222656 1516.847656 C 2845.128906 1516.847656 2855.882812 1509.882812 2860.746094 1499.011719 C 2870.441406 1477.3125 2885.605469 1436.65625 2892.933594 1381.691406 Z M 2667.671875 1332.65625 " fill-opacity="1" fill-rule="nonzero"/><path fill="#eef5ff" d="M 2621.488281 1304.921875 C 2642.132812 1284.617188 2716.886719 1216.214844 2844.214844 1155.066406 C 2844.214844 1155.066406 2913.574219 1224.425781 2948.683594 1292.925781 L 2948.683594 1326.324219 C 2948.683594 1326.324219 2915.613281 1380.789062 2849.679688 1422.746094 C 2849.679688 1422.746094 2739.503906 1401.433594 2623.980469 1327.804688 C 2620.800781 1325.777344 2618.503906 1322.570312 2617.589844 1318.910156 C 2616.332031 1313.871094 2617.785156 1308.5625 2621.488281 1304.921875 Z M 2621.488281 1304.921875 " fill-opacity="1" fill-rule="nonzero"/><path fill="#c7daff" d="M 2729.226562 1383.167969 C 2798.433594 1412.808594 2849.679688 1422.75 2849.679688 1422.75 C 2915.613281 1380.792969 2948.683594 1326.324219 2948.683594 1326.324219 L 2948.683594 1292.929688 C 2920.050781 1237.066406 2868.667969 1180.664062 2850.675781 1161.742188 C 2851.96875 1211.476562 2843.800781 1341.390625 2729.226562 1383.167969 Z M 2729.226562 1383.167969 " fill-opacity="1" fill-rule="nonzero"/><path fill="#819fea" d="M 2948.683594 1326.324219 L 2948.683594 1292.925781 C 2913.574219 1224.425781 2844.21875 1155.066406 2844.21875 1155.066406 C 2844.21875 1155.066406 2862.851562 1258.863281 2849.683594 1422.746094 C 2915.613281 1380.789062 2948.683594 1326.324219 2948.683594 1326.324219 Z M 2948.683594 1326.324219 " fill-opacity="1" fill-rule="nonzero"/><path fill="#375dab" d="M 2786.289062 1245.238281 C 2786.289062 1245.238281 2797.902344 1235.070312 2817.492188 1222.753906 C 2817.492188 1222.753906 2824.316406 1305.039062 2818.734375 1359.011719 L 2787.53125 1341.851562 Z M 2786.289062 1245.238281 " fill-opacity="1" fill-rule="nonzero"/><path fill="#375dab" d="M 2740.9375 1276.035156 L 2744.570312 1318.625 L 2715.964844 1302.230469 C 2715.964844 1302.230469 2733.335938 1285.054688 2740.9375 1276.035156 Z M 2740.9375 1276.035156 " fill-opacity="1" fill-rule="nonzero"/><path fill="#375dab" d="M 2877.964844 1235.339844 C 2877.964844 1235.339844 2882.0625 1293.386719 2878.644531 1356.671875 L 2898.472656 1333.910156 L 2899.089844 1258.761719 Z M 2877.964844 1235.339844 " fill-opacity="1" fill-rule="nonzero"/><path fill="#375dab" d="M 2926.917969 1294.578125 C 2924.199219 1291.414062 2920.894531 1287.699219 2917.925781 1284.730469 L 2917.925781 1317.589844 L 2926.917969 1307.410156 Z M 2926.917969 1294.578125 " fill-opacity="1" fill-rule="nonzero"/><path fill="#c7daff" d="M 2652.566406 1318.625 C 2652.566406 1319.785156 2652.507812 1320.941406 2652.394531 1322.097656 C 2652.28125 1323.25 2652.113281 1324.398438 2651.886719 1325.535156 C 2651.660156 1326.671875 2651.378906 1327.796875 2651.039062 1328.90625 C 2650.703125 1330.015625 2650.3125 1331.109375 2649.871094 1332.179688 C 2649.425781 1333.25 2648.929688 1334.300781 2648.382812 1335.320312 C 2647.835938 1336.34375 2647.242188 1337.339844 2646.597656 1338.304688 C 2645.953125 1339.269531 2645.261719 1340.199219 2644.527344 1341.09375 C 2643.789062 1341.992188 2643.011719 1342.851562 2642.191406 1343.671875 C 2641.371094 1344.492188 2640.511719 1345.269531 2639.617188 1346.003906 C 2638.71875 1346.742188 2637.789062 1347.429688 2636.824219 1348.074219 C 2635.859375 1348.71875 2634.867188 1349.316406 2633.84375 1349.863281 C 2632.820312 1350.410156 2631.773438 1350.90625 2630.699219 1351.347656 C 2629.628906 1351.792969 2628.539062 1352.183594 2627.429688 1352.519531 C 2626.316406 1352.855469 2625.195312 1353.136719 2624.054688 1353.363281 C 2622.917969 1353.589844 2621.773438 1353.761719 2620.617188 1353.875 C 2619.464844 1353.988281 2618.304688 1354.046875 2617.144531 1354.046875 C 2615.984375 1354.046875 2614.828125 1353.988281 2613.675781 1353.875 C 2612.519531 1353.761719 2611.375 1353.589844 2610.234375 1353.363281 C 2609.097656 1353.136719 2607.972656 1352.855469 2606.863281 1352.519531 C 2605.753906 1352.183594 2604.664062 1351.792969 2603.589844 1351.347656 C 2602.519531 1350.90625 2601.472656 1350.410156 2600.449219 1349.863281 C 2599.425781 1349.316406 2598.433594 1348.71875 2597.46875 1348.074219 C 2596.503906 1347.429688 2595.574219 1346.742188 2594.675781 1346.003906 C 2593.777344 1345.269531 2592.921875 1344.492188 2592.101562 1343.671875 C 2591.28125 1342.851562 2590.503906 1341.992188 2589.765625 1341.09375 C 2589.03125 1340.199219 2588.339844 1339.269531 2587.695312 1338.304688 C 2587.050781 1337.339844 2586.457031 1336.34375 2585.910156 1335.320312 C 2585.363281 1334.300781 2584.867188 1333.25 2584.421875 1332.179688 C 2583.980469 1331.109375 2583.589844 1330.015625 2583.25 1328.90625 C 2582.914062 1327.796875 2582.632812 1326.671875 2582.40625 1325.535156 C 2582.179688 1324.398438 2582.011719 1323.25 2581.898438 1322.097656 C 2581.785156 1320.941406 2581.726562 1319.785156 2581.726562 1318.625 C 2581.726562 1317.464844 2581.785156 1316.308594 2581.898438 1315.152344 C 2582.011719 1314 2582.179688 1312.851562 2582.40625 1311.714844 C 2582.632812 1310.578125 2582.914062 1309.453125 2583.25 1308.34375 C 2583.589844 1307.234375 2583.980469 1306.140625 2584.421875 1305.070312 C 2584.867188 1304 2585.363281 1302.953125 2585.910156 1301.929688 C 2586.457031 1300.90625 2587.050781 1299.910156 2587.695312 1298.945312 C 2588.339844 1297.984375 2589.03125 1297.050781 2589.765625 1296.15625 C 2590.503906 1295.257812 2591.28125 1294.398438 2592.101562 1293.578125 C 2592.921875 1292.757812 2593.78125 1291.980469 2594.675781 1291.246094 C 2595.574219 1290.507812 2596.503906 1289.820312 2597.46875 1289.175781 C 2598.433594 1288.53125 2599.425781 1287.933594 2600.449219 1287.386719 C 2601.472656 1286.839844 2602.519531 1286.347656 2603.589844 1285.902344 C 2604.664062 1285.457031 2605.753906 1285.066406 2606.863281 1284.730469 C 2607.972656 1284.394531 2609.097656 1284.113281 2610.234375 1283.886719 C 2611.375 1283.660156 2612.519531 1283.488281 2613.675781 1283.375 C 2614.828125 1283.261719 2615.984375 1283.207031 2617.144531 1283.207031 C 2618.304688 1283.207031 2619.464844 1283.261719 2620.617188 1283.375 C 2621.773438 1283.488281 2622.917969 1283.660156 2624.054688 1283.886719 C 2625.195312 1284.113281 2626.316406 1284.394531 2627.429688 1284.730469 C 2628.539062 1285.066406 2629.628906 1285.457031 2630.699219 1285.902344 C 2631.773438 1286.347656 2632.820312 1286.839844 2633.84375 1287.386719 C 2634.867188 1287.933594 2635.859375 1288.53125 2636.824219 1289.175781 C 2637.789062 1289.820312 2638.71875 1290.507812 2639.617188 1291.246094 C 2640.511719 1291.980469 2641.371094 1292.757812 2642.191406 1293.578125 C 2643.011719 1294.398438 2643.789062 1295.257812 2644.527344 1296.15625 C 2645.261719 1297.050781 2645.953125 1297.984375 2646.597656 1298.945312 C 2647.242188 1299.910156 2647.835938 1300.90625 2648.382812 1301.929688 C 2648.929688 1302.953125 2649.425781 1304 2649.871094 1305.070312 C 2650.3125 1306.140625 2650.703125 1307.234375 2651.039062 1308.34375 C 2651.378906 1309.453125 2651.660156 1310.578125 2651.886719 1311.714844 C 2652.113281 1312.851562 2652.28125 1314 2652.394531 1315.152344 C 2652.507812 1316.308594 2652.566406 1317.464844 2652.566406 1318.625 Z M 2652.566406 1318.625 " fill-opacity="1" fill-rule="nonzero"/><path fill="#819fea" d="M 2933.632812 1493.472656 C 2933.632812 1493.472656 2967.777344 1557.417969 2923.261719 1661.210938 C 2918.320312 1672.730469 2919.898438 1686.003906 2927.839844 1695.707031 C 2938.957031 1709.285156 2955.945312 1728.675781 2973.523438 1743.636719 C 2989.5 1757.230469 3011.609375 1760.890625 3031.167969 1753.300781 C 3039.582031 1750.039062 3048.929688 1745.574219 3058.175781 1739.515625 C 3066.890625 1733.804688 3069.949219 1722.460938 3065.371094 1713.097656 C 3054.101562 1690.035156 3027.648438 1644.789062 2976.4375 1599.042969 C 2973.554688 1596.464844 2971.761719 1592.878906 2971.585938 1589.015625 C 2970.726562 1570.046875 2965.496094 1510.851562 2933.632812 1493.472656 Z M 2933.632812 1493.472656 " fill-opacity="1" fill-rule="nonzero"/><path fill="#cde0ff" d="M 2507.503906 1841.960938 C 2543.152344 1799.15625 2609.613281 1723.039062 2681.394531 1659.382812 C 2666.960938 1651.292969 2653.023438 1642.753906 2639.914062 1634.214844 C 2617.75 1683.65625 2569.40625 1750.332031 2463.996094 1808.945312 C 2480.484375 1819.671875 2495.378906 1831.4375 2507.503906 1841.960938 Z M 2507.503906 1841.960938 " fill-opacity="1" fill-rule="nonzero"/><path fill="#cde0ff" d="M 2720.796875 1679.539062 C 2713.945312 1676.394531 2707.148438 1673.066406 2700.414062 1669.605469 C 2665.234375 1710.582031 2584.714844 1803.6875 2529.46875 1862.285156 C 2535.882812 1868.628906 2539.566406 1872.675781 2539.566406 1872.675781 C 2540.515625 1873.761719 2541.472656 1874.773438 2542.425781 1875.835938 C 2580.128906 1829.367188 2657.167969 1737.265625 2720.796875 1679.539062 Z M 2720.796875 1679.539062 " fill-opacity="1" fill-rule="nonzero"/><g clip-path="url(#30814386d8)"><path fill="#303030" d="M 2881.898438 921.855469 C 2882.269531 922.222656 2882.53125 923.121094 2882.53125 923.859375 C 2882.53125 925.550781 2881.636719 926.5 2880.105469 926.5 C 2878.886719 926.5 2877.25 924.757812 2877.25 923.492188 C 2877.25 921.695312 2880.527344 920.480469 2881.898438 921.855469 Z M 2863.203125 917.683594 C 2863.785156 918.105469 2864.101562 918.898438 2863.941406 919.691406 C 2863.835938 920.691406 2863.46875 920.957031 2862.253906 920.957031 C 2860.140625 920.957031 2859.292969 919.53125 2860.5625 918.105469 C 2861.722656 916.785156 2861.9375 916.785156 2863.203125 917.683594 Z M 2873.449219 907.601562 C 2874.453125 908.605469 2874.242188 911.085938 2873.078125 911.71875 C 2871.285156 912.667969 2869.859375 912.351562 2869.277344 910.875 C 2868.273438 908.183594 2871.496094 905.648438 2873.449219 907.601562 Z M 3116.078125 905.226562 C 3117.34375 906.386719 3117.292969 908.5 3115.867188 909.976562 C 3112.75 913.25 3108.367188 909.238281 3111.007812 905.492188 C 3111.960938 904.066406 3114.652344 903.90625 3116.078125 905.226562 Z M 3133.824219 903.960938 C 3133.984375 905.171875 3132.714844 908.550781 3132.078125 908.550781 C 3131.921875 908.550781 3132.078125 903.21875 3132.289062 902.324219 C 3132.34375 902.21875 3132.660156 902.21875 3133.03125 902.324219 C 3133.347656 902.480469 3133.71875 903.167969 3133.824219 903.960938 Z M 2843.082031 905.648438 C 2844.453125 907.917969 2845.457031 909.871094 2845.300781 910.03125 C 2844.507812 910.875 2838.328125 902.691406 2838.960938 901.636719 C 2839.648438 900.632812 2840.546875 901.53125 2843.082031 905.648438 Z M 3145.019531 893.667969 C 3145.019531 900.632812 3142.167969 912.828125 3140.792969 911.984375 C 3140.480469 911.773438 3140.371094 911.457031 3140.53125 911.191406 C 3141.164062 910.136719 3142.378906 897.996094 3142.378906 892.503906 L 3142.378906 886.75 L 3143.699219 887.964844 C 3144.914062 889.074219 3145.019531 889.601562 3145.019531 893.667969 Z M 2825.546875 876.140625 C 2826.128906 882.265625 2826.8125 886.171875 2827.976562 889.8125 C 2828.714844 892.136719 2829.613281 894.035156 2834.3125 902.746094 C 2837.058594 907.867188 2844.082031 916.996094 2846.144531 918.105469 C 2847.304688 918.6875 2847.464844 919.636719 2846.460938 919.636719 C 2845.191406 919.636719 2839.964844 915.730469 2836.320312 912.035156 C 2830.5625 906.230469 2825.335938 895.25 2823.699219 885.695312 C 2822.429688 878.464844 2822.058594 870.492188 2822.90625 869.964844 C 2824.277344 869.121094 2825.019531 870.8125 2825.546875 876.140625 Z M 3157.484375 867.75 C 3157.695312 870.019531 3157.90625 877.566406 3157.855469 884.535156 C 3157.855469 896.675781 3157.800781 897.414062 3156.425781 901.847656 C 3154.949219 906.863281 3151.675781 913.832031 3150.828125 913.832031 C 3150.144531 913.832031 3150.039062 914.253906 3152.203125 906.863281 C 3154.261719 899.738281 3155.003906 892.929688 3155.054688 881.105469 C 3155.054688 874.082031 3156.058594 863.683594 3156.691406 863.683594 C 3156.902344 863.683594 3157.273438 865.53125 3157.484375 867.75 Z M 2957.582031 850.488281 C 2959.324219 851.4375 2960.222656 853.867188 2959.589844 855.714844 C 2958.480469 858.777344 2955.207031 859.355469 2952.722656 856.875 C 2949.027344 853.179688 2952.933594 848.007812 2957.582031 850.488281 Z M 3110.847656 846.316406 C 3115.023438 849.589844 3112.804688 856.824219 3107.628906 856.824219 C 3104.988281 856.824219 3102.769531 854.394531 3102.769531 851.542969 C 3102.769531 849.117188 3103.878906 846.582031 3105.25 845.789062 C 3106.78125 844.894531 3109.425781 845.15625 3110.847656 846.316406 Z M 3016.523438 836.234375 C 3020.378906 838.558594 3021.699219 845.050781 3019.269531 849.484375 C 3015.890625 855.609375 3006.171875 855.820312 3003.425781 849.800781 C 3002.261719 847.214844 3002.210938 846.210938 3003.003906 842.570312 C 3003.582031 839.71875 3005.90625 836.5 3007.914062 835.707031 C 3010.027344 834.8125 3014.726562 835.128906 3016.523438 836.234375 Z M 2877.9375 805.144531 C 2878.519531 805.832031 2878.730469 806.730469 2878.519531 807.414062 C 2877.9375 809.527344 2876.460938 810.214844 2871.601562 810.582031 C 2869.066406 810.742188 2862.726562 811.320312 2857.550781 811.796875 L 2848.097656 812.695312 L 2848.414062 814.011719 C 2848.574219 814.753906 2849.207031 818.921875 2849.894531 823.25 L 2851.054688 831.0625 L 2853.222656 830.800781 C 2860.085938 829.847656 2868.273438 829.269531 2869.488281 829.585938 C 2872.921875 830.429688 2873.132812 834.546875 2869.75 835.65625 C 2868.378906 836.078125 2854.648438 837.820312 2852.535156 837.820312 C 2852.324219 837.820312 2852.746094 841.460938 2853.539062 845.84375 C 2855.597656 857.246094 2856.019531 862.734375 2854.859375 864.476562 C 2854.117188 865.585938 2853.589844 865.847656 2852.058594 865.691406 C 2849.261719 865.480469 2848.257812 863.738281 2847.359375 857.824219 C 2846.988281 855.082031 2846.515625 852.335938 2846.355469 851.648438 C 2846.195312 851.015625 2845.828125 848.164062 2845.5625 845.316406 C 2844.347656 832.859375 2843.34375 823.832031 2842.394531 816.8125 C 2841.335938 809.210938 2841.390625 808.152344 2843.027344 806.78125 C 2843.660156 806.308594 2849.207031 805.671875 2870.386719 803.824219 C 2874.558594 803.507812 2876.882812 803.878906 2877.9375 805.144531 Z M 2921.085938 803.351562 C 2925.734375 804.457031 2928.957031 806.199219 2931.28125 808.734375 C 2933.710938 811.425781 2934.660156 813.273438 2935.609375 817.339844 C 2936.613281 821.613281 2936.613281 824.148438 2935.609375 828.054688 C 2933.5 836.234375 2929.222656 841.777344 2922.777344 844.839844 C 2919.503906 846.421875 2918.816406 846.527344 2913.695312 846.527344 C 2908.148438 846.527344 2908.09375 846.527344 2905.507812 844.628906 C 2903.660156 843.308594 2902.390625 841.832031 2901.28125 839.667969 C 2899.855469 836.871094 2899.699219 836.078125 2899.699219 831.484375 C 2899.699219 826.839844 2899.855469 826.152344 2901.441406 822.933594 C 2902.445312 820.875 2904.027344 818.710938 2905.136719 817.761719 C 2907.515625 815.753906 2912.054688 814.382812 2914.539062 814.859375 C 2918.183594 815.542969 2921.722656 820.1875 2920.824219 823.144531 C 2919.765625 826.523438 2916.914062 827.210938 2914.644531 824.621094 C 2913.269531 823.039062 2913.164062 822.984375 2911.632812 823.777344 C 2907.25 826.046875 2905.929688 834.96875 2909.625 837.554688 C 2911.160156 838.664062 2915.59375 838.558594 2918.234375 837.34375 C 2921.722656 835.761719 2923.941406 833.386719 2925.894531 829.269531 C 2927.425781 825.941406 2927.6875 824.886719 2927.636719 821.613281 C 2927.53125 815.332031 2925.207031 812.695312 2918.128906 811.109375 C 2913.058594 810 2907.832031 809.894531 2904.453125 810.847656 C 2902.339844 811.480469 2901.019531 812.378906 2897.796875 815.648438 C 2891.667969 821.773438 2889.664062 827.105469 2890.296875 835.285156 C 2891.089844 845.421875 2895.578125 850.804688 2906.40625 854.5 C 2910.417969 855.871094 2913.90625 856.082031 2918.976562 855.398438 C 2922.621094 854.871094 2924.152344 855.082031 2924.730469 856.1875 C 2925.578125 857.824219 2924.414062 859.460938 2921.246094 860.941406 C 2915.226562 863.738281 2906.246094 862.578125 2896.582031 857.71875 C 2888.027344 853.496094 2882.425781 843.46875 2882.320312 832.277344 C 2882.269531 823.882812 2885.226562 817.234375 2892.304688 810.054688 C 2896.371094 805.9375 2899.167969 804.195312 2903.816406 802.929688 C 2908.253906 801.765625 2915.332031 801.925781 2921.085938 803.351562 Z M 3008.96875 800.921875 C 3011.136719 801.925781 3011.136719 803.824219 3008.96875 809.632812 C 3007.914062 812.535156 3005.644531 818.078125 3003.898438 821.984375 C 3002.15625 825.890625 2999.09375 833.386719 2997.085938 838.613281 C 2990.167969 856.507812 2989.851562 857.191406 2987.792969 857.667969 C 2986.15625 858.089844 2984.464844 856.609375 2984.464844 854.710938 C 2984.464844 852.230469 2986.417969 846.6875 2994.339844 826.734375 C 3002.949219 805.09375 3003.898438 803.035156 3005.90625 801.449219 C 3007.542969 800.128906 3007.332031 800.183594 3008.96875 800.921875 Z M 2953.355469 801.34375 C 2954.78125 802.507812 2955.046875 804.300781 2955.996094 821.457031 C 2956.738281 834.917969 2956.472656 837.976562 2954.625 839.191406 C 2953.09375 840.195312 2951.402344 839.507812 2950.664062 837.609375 C 2950.136719 836.128906 2949.394531 829.480469 2948.285156 816.125 C 2947.230469 803.246094 2947.230469 803.191406 2948.816406 801.660156 C 2950.347656 800.078125 2951.71875 799.972656 2953.355469 801.34375 Z M 2989.429688 800.289062 C 2992.175781 802.03125 2993.441406 804.777344 2993.441406 809.15625 C 2993.390625 814.804688 2991.015625 818.710938 2986.472656 820.613281 C 2978.8125 823.832031 2971.578125 817.023438 2973.320312 808.363281 C 2974.113281 804.300781 2975.75 801.132812 2977.757812 799.8125 C 2980.132812 798.285156 2986.578125 798.546875 2989.429688 800.289062 Z M 3050.164062 799.234375 C 3050.851562 799.972656 3051.273438 801.871094 3051.695312 806.09375 L 3052.226562 811.953125 L 3055.445312 811.636719 C 3057.242188 811.480469 3060.675781 811.164062 3063.15625 811.003906 L 3067.648438 810.636719 L 3068.070312 805.410156 C 3068.492188 799.972656 3069.179688 798.230469 3071.078125 798.230469 C 3072.875 798.230469 3073.613281 799.917969 3073.984375 804.933594 L 3074.410156 809.84375 L 3078.578125 809.84375 C 3082.277344 809.84375 3082.910156 810 3084.019531 811.164062 C 3086.820312 813.90625 3085.128906 816.441406 3080.058594 817.285156 C 3073.5625 818.289062 3074.25 817.496094 3074.25 824.148438 L 3074.25 829.953125 L 3078.738281 829.796875 C 3082.699219 829.636719 3083.332031 829.742188 3084.335938 830.800781 C 3085.65625 832.117188 3085.816406 834.386719 3084.652344 835.550781 C 3083.703125 836.5 3080.324219 837.238281 3076.785156 837.292969 L 3074.355469 837.292969 L 3074.144531 845.578125 C 3073.933594 854.605469 3073.351562 856.925781 3070.976562 857.507812 C 3069.496094 857.929688 3067.488281 856.664062 3066.855469 854.921875 C 3066.539062 854.183594 3066.328125 850.011719 3066.328125 845.632812 L 3066.328125 837.660156 L 3062.261719 838.03125 C 3060.042969 838.1875 3057.347656 838.347656 3056.238281 838.347656 L 3054.285156 838.347656 L 3054.335938 846.210938 C 3054.441406 853.496094 3054.335938 854.234375 3053.335938 855.609375 C 3051.804688 857.667969 3049.164062 857.667969 3047.632812 855.609375 C 3046.679688 854.339844 3046.46875 853.074219 3046.203125 846.898438 C 3045.992188 842.941406 3045.832031 839.5625 3045.78125 839.457031 C 3045.78125 839.351562 3043.511719 839.402344 3040.816406 839.613281 C 3036.382812 839.929688 3035.75 839.878906 3034.585938 838.980469 C 3033.53125 838.082031 3033.421875 837.714844 3033.84375 836.445312 C 3034.269531 835.179688 3034.953125 834.757812 3037.277344 834.019531 C 3038.863281 833.542969 3041.292969 832.964844 3042.71875 832.804688 L 3045.199219 832.488281 L 3045.199219 830.269531 C 3045.199219 829.058594 3045.042969 826.472656 3044.886719 824.570312 L 3044.511719 821.140625 L 3038.863281 821.140625 C 3033.953125 821.191406 3033 821.035156 3032.050781 820.1875 C 3030.519531 818.816406 3030.730469 816.335938 3032.527344 815.070312 C 3033.371094 814.433594 3035.640625 813.855469 3038.96875 813.433594 L 3044.039062 812.800781 L 3044.25 806.410156 C 3044.355469 801.925781 3044.621094 799.707031 3045.148438 799.128906 C 3046.152344 797.914062 3049.054688 797.964844 3050.164062 799.234375 Z M 3112.382812 796.488281 C 3112.804688 797.015625 3113.332031 797.914062 3113.542969 798.492188 C 3114.125 800.183594 3113.964844 829.742188 3113.332031 832.117188 C 3112.222656 836.128906 3109.316406 837.398438 3106.941406 834.863281 C 3105.726562 833.542969 3105.675781 833.175781 3105.515625 825.046875 C 3105.304688 814.859375 3106.203125 799.234375 3107.046875 797.542969 C 3107.417969 796.910156 3107.945312 796.222656 3108.261719 796.011719 C 3109.316406 795.273438 3111.589844 795.589844 3112.382812 796.488281 Z M 3159.703125 784.503906 C 3159.914062 788.414062 3159.4375 792.421875 3158.75 792.421875 C 3158.222656 792.421875 3157.167969 786.460938 3157.167969 783.238281 C 3157.167969 780.96875 3157.273438 780.757812 3158.382812 780.917969 C 3159.4375 781.074219 3159.542969 781.390625 3159.703125 784.503906 Z M 2825.28125 761.019531 C 2825.492188 761.492188 2824.648438 762.863281 2823.167969 764.5 C 2820.105469 767.933594 2818.734375 771.046875 2818.046875 776.058594 C 2817.042969 783.609375 2816.460938 786.933594 2816.039062 787.621094 C 2814.296875 790.417969 2813.03125 775.691406 2814.613281 770.992188 C 2816.515625 765.1875 2824.171875 758.0625 2825.28125 761.019531 Z M 3140.160156 762.285156 C 3142.0625 765.714844 3142.007812 767.402344 3140.054688 764.765625 C 3139.472656 763.921875 3138.152344 762.285156 3137.152344 761.175781 C 3136.042969 759.910156 3135.511719 758.851562 3135.726562 758.324219 C 3136.253906 756.898438 3138.152344 758.535156 3140.160156 762.285156 Z M 2837.640625 758.90625 C 2837.640625 759.855469 2836.425781 761.542969 2833.308594 764.765625 C 2828.558594 769.726562 2827.023438 769.988281 2829.824219 765.449219 C 2833.257812 759.800781 2835.105469 757.585938 2836.425781 757.585938 C 2837.375 757.585938 2837.640625 757.851562 2837.640625 758.90625 Z M 3110.902344 755.578125 C 3111.324219 756.320312 3111.273438 756.6875 3110.585938 757.375 C 3109 758.957031 3106.625 756.898438 3108.050781 755.15625 C 3108.894531 754.207031 3110.109375 754.363281 3110.902344 755.578125 Z M 3141.003906 748.824219 C 3142.800781 749.71875 3145.285156 751.726562 3147.765625 754.363281 C 3151.253906 758.007812 3151.992188 759.0625 3153.683594 763.445312 C 3155.898438 769.304688 3157.0625 774.265625 3156.269531 775.058594 C 3155.898438 775.425781 3155.371094 774.371094 3154.582031 771.996094 C 3152.464844 765.609375 3149.929688 760.964844 3145.96875 756.53125 C 3141.746094 751.78125 3138.683594 749.984375 3133.824219 749.40625 C 3131.765625 749.195312 3130.761719 748.824219 3130.761719 748.347656 C 3130.761719 747.292969 3131.765625 747.027344 3135.144531 747.238281 C 3137.042969 747.398438 3139.316406 747.976562 3141.003906 748.824219 Z M 3103.191406 744.179688 C 3105.515625 745.816406 3104.089844 749.667969 3101.132812 749.667969 C 3099.230469 749.667969 3098.015625 748.402344 3098.015625 746.5 C 3098.015625 744.917969 3099.601562 743.332031 3101.183594 743.332031 C 3101.660156 743.332031 3102.558594 743.703125 3103.191406 744.179688 Z M 3046.203125 734.570312 C 3046.097656 734.675781 3037.332031 735.046875 3026.714844 735.363281 C 3006.804688 735.945312 2995.714844 736.472656 2970.734375 737.792969 C 2942.214844 739.320312 2928.851562 739.636719 2899.167969 739.585938 C 2864.257812 739.53125 2860.085938 739.796875 2843.503906 743.121094 C 2834.207031 744.96875 2828.660156 746.710938 2822.851562 749.5625 C 2814.457031 753.625 2807.957031 761.019531 2805.160156 769.675781 C 2804.316406 772.207031 2804.261719 773.789062 2804.578125 782.605469 C 2805.320312 803.613281 2806.691406 821.035156 2810.757812 860.148438 C 2811.972656 872.128906 2814.457031 887.703125 2816.25 894.773438 C 2819.050781 905.859375 2823.960938 915.414062 2829.558594 920.746094 C 2831.25 922.328125 2834.949219 925.019531 2837.746094 926.710938 C 2843.554688 930.140625 2845.402344 931.832031 2847.9375 936.054688 C 2850.792969 940.644531 2851.582031 946.398438 2851.214844 959.226562 C 2850.84375 970.152344 2850.421875 973.425781 2847.148438 991.375 C 2845.984375 997.65625 2845.035156 1003.515625 2845.035156 1004.410156 C 2845.035156 1008.210938 2847.148438 1010.957031 2850.050781 1010.957031 C 2853.273438 1010.957031 2857.5 1006.3125 2864.046875 995.648438 C 2866.953125 990.898438 2875.402344 974.375 2878.308594 967.671875 C 2881.316406 960.757812 2889.242188 944.550781 2890.453125 942.863281 C 2892.566406 939.855469 2897.847656 938.058594 2907.089844 937.109375 C 2917.972656 936 2943.058594 934.417969 2961.753906 933.679688 C 2992.175781 932.410156 3000.574219 932.253906 3035.960938 932.042969 C 3074.410156 931.832031 3110.375 930.667969 3128.964844 929.136719 C 3139.316406 928.242188 3148.980469 924.652344 3154.632812 919.636719 C 3158.066406 916.574219 3159.332031 914.09375 3161.128906 907.074219 C 3163.292969 898.3125 3164.191406 889.023438 3165.300781 863.421875 C 3166.621094 833.597656 3166.78125 820.980469 3166.199219 801.660156 C 3165.300781 772.15625 3163.980469 764.234375 3158.066406 752.570312 C 3153.417969 743.332031 3147.609375 740.007812 3131.289062 737.371094 C 3120.515625 735.574219 3094.371094 734.359375 3066.539062 734.359375 C 3055.5 734.359375 3046.308594 734.464844 3046.203125 734.570312 " fill-opacity="1" fill-rule="evenodd"/></g><path fill="#303030" d="M 3061.574219 819.660156 C 3061.152344 819.714844 3058.933594 819.976562 3056.660156 820.136719 L 3052.488281 820.503906 L 3052.804688 822.671875 C 3052.964844 823.882812 3053.226562 826.472656 3053.4375 828.371094 L 3053.757812 831.90625 L 3057.296875 831.644531 C 3059.199219 831.539062 3061.996094 831.328125 3063.527344 831.167969 L 3066.273438 830.90625 L 3066.539062 828.160156 C 3066.695312 826.628906 3066.90625 824.042969 3067.015625 822.355469 L 3067.226562 819.34375 L 3064.796875 819.398438 C 3063.476562 819.449219 3061.996094 819.554688 3061.574219 819.660156 " fill-opacity="1" fill-rule="evenodd"/><path fill="#303030" d="M 2982.246094 806.148438 C 2981.085938 806.835938 2980.449219 810.898438 2981.242188 812.429688 C 2982.085938 813.960938 2984.148438 813.855469 2985.46875 812.164062 C 2986.683594 810.582031 2986.945312 807.257812 2985.941406 806.253906 C 2985.203125 805.515625 2983.460938 805.460938 2982.246094 806.148438 " fill-opacity="1" fill-rule="evenodd"/><path fill="#303030" d="M 3010.132812 841.304688 C 3009.5 841.9375 3009.289062 842.886719 3009.394531 844.628906 C 3009.550781 846.738281 3009.710938 847.058594 3010.765625 847.214844 C 3013.25 847.585938 3014.992188 844.417969 3013.40625 842.515625 C 3011.824219 840.667969 3011.03125 840.351562 3010.132812 841.304688 " fill-opacity="1" fill-rule="evenodd"/><g clip-path="url(#8bf5eac46e)"><g clip-path="url(#83ca360cea)"><g clip-path="url(#8e48d29b28)"><g clip-path="url(#07ca8fffbd)"><path fill="#303030" d="M 2326.457031 921.972656 C 2334.945312 918.457031 2345.296875 912.371094 2359.167969 902.761719 C 2372.378906 893.582031 2376.996094 890.808594 2377.550781 891.652344 C 2378.136719 892.542969 2365.164062 902.902344 2352.886719 911.261719 C 2346.101562 915.933594 2323.96875 925.421875 2323.105469 924.113281 C 2322.765625 923.601562 2323.046875 923.414062 2326.457031 921.972656 Z M 2314.25 929.011719 C 2314.835938 929.898438 2312.996094 931.179688 2311.164062 931.046875 C 2309.917969 930.992188 2309.984375 930.882812 2311.824219 929.605469 C 2313.273438 928.648438 2313.910156 928.496094 2314.25 929.011719 Z M 2169.15625 976.679688 C 2170.851562 979.25 2168.316406 982.53125 2166.074219 980.65625 C 2164.789062 979.625 2165.222656 977.328125 2166.9375 976.261719 C 2168.136719 975.539062 2168.449219 975.601562 2169.15625 976.679688 Z M 2167.386719 967.984375 C 2167.589844 968.1875 2167.402344 968.3125 2167.027344 968.355469 C 2166.703125 968.371094 2166.066406 967.917969 2165.742188 967.324219 C 2165.097656 966.34375 2165.144531 966.3125 2166.105469 966.953125 C 2166.675781 967.3125 2167.265625 967.796875 2167.386719 967.984375 Z M 2157.464844 969.628906 C 2158.8125 969.945312 2158.90625 970.085938 2158.898438 971.703125 C 2158.90625 972.636719 2158.59375 973.582031 2158.21875 973.828125 C 2157.421875 974.351562 2155.28125 973.953125 2154.726562 973.109375 C 2154.199219 972.316406 2154.601562 970.175781 2155.398438 969.648438 C 2155.722656 969.433594 2156.65625 969.421875 2157.464844 969.628906 Z M 2256.125 869.527344 C 2257.410156 869.753906 2260.277344 871.554688 2260.984375 872.628906 C 2261.140625 872.863281 2261.039062 873.734375 2260.847656 874.664062 C 2260.339844 876.742188 2257.5625 878.640625 2255.3125 878.378906 C 2253.167969 878.183594 2251.027344 875.234375 2251.378906 872.921875 C 2251.703125 870.964844 2254.074219 869.269531 2256.125 869.527344 Z M 2395.375 774.199219 C 2398.46875 773.902344 2401.714844 776.996094 2401.417969 780.007812 C 2401.253906 781.792969 2398.835938 783.722656 2396.488281 783.929688 C 2394.964844 784.0625 2392.113281 782.382812 2390.910156 780.558594 C 2389.21875 777.988281 2391.566406 774.628906 2395.375 774.199219 Z M 2304.238281 815.550781 C 2307.835938 814.183594 2316.015625 813.152344 2319.574219 813.558594 C 2322.972656 813.933594 2328.523438 816.246094 2330.082031 817.898438 C 2331.859375 819.882812 2332.5 821.875 2331.765625 823.300781 C 2330.601562 825.40625 2328.734375 825.429688 2324.347656 823.558594 C 2322.039062 822.597656 2319.402344 821.652344 2318.457031 821.539062 C 2312.339844 820.609375 2304.339844 822.726562 2299.71875 826.511719 C 2296.722656 828.886719 2292.582031 835.84375 2291.28125 840.589844 C 2290.769531 842.46875 2290.332031 845.773438 2290.289062 847.949219 C 2290.289062 850.902344 2289.957031 852.125 2289.160156 852.652344 C 2287.523438 853.730469 2286.128906 853.039062 2284.992188 850.703125 C 2282.179688 844.910156 2285.566406 831.210938 2291.527344 823.859375 C 2293.578125 821.367188 2300.269531 816.960938 2304.238281 815.550781 Z M 2462.027344 709.949219 C 2465.84375 716.152344 2472.796875 737.796875 2474.429688 748.523438 C 2475.535156 755.910156 2475.332031 762.214844 2473.710938 771.0625 C 2472.207031 779.164062 2469.453125 787.820312 2468.300781 788.109375 C 2467.914062 788.234375 2468.164062 784.644531 2468.84375 780.175781 C 2470.136719 771.136719 2471.050781 761.011719 2471 755.949219 C 2470.878906 746.90625 2467.632812 732.613281 2462.402344 717.953125 C 2458.207031 706.296875 2458.394531 706.777344 2459.152344 706.613281 C 2459.621094 706.503906 2460.5625 707.625 2462.027344 709.949219 Z M 2098.910156 938.933594 C 2099.710938 940.554688 2102.804688 945.554688 2105.765625 950.042969 C 2110.046875 956.542969 2111.960938 959.039062 2115.066406 962.023438 C 2117.183594 964.113281 2118.898438 966.003906 2118.867188 966.160156 C 2118.597656 967.476562 2111.972656 962.722656 2107.398438 957.820312 C 2101.3125 951.4375 2094.769531 937.839844 2097.0625 936.328125 C 2097.34375 936.144531 2098.097656 937.191406 2098.910156 938.933594 Z M 2453.460938 693.394531 C 2454.851562 695.09375 2455.695312 697.289062 2455.132812 697.65625 C 2454.710938 697.933594 2451.097656 693.675781 2451.042969 692.773438 C 2450.910156 691.65625 2452.367188 692.035156 2453.460938 693.394531 Z M 2301.050781 776.804688 C 2302.871094 776.8125 2304.226562 778.667969 2304.183594 781.042969 C 2304.0625 786.355469 2302.367188 800.285156 2301.753906 801.089844 C 2299.707031 803.578125 2296.824219 802.261719 2296.300781 798.515625 C 2295.6875 794.222656 2296.789062 780.820312 2297.917969 778.667969 C 2298.78125 777.023438 2299.203125 776.746094 2301.050781 776.804688 Z M 2265.398438 799.898438 C 2266.101562 799.839844 2271.15625 801.402344 2276.710938 803.308594 C 2285.164062 806.257812 2286.929688 807.105469 2287.605469 808.335938 C 2288.589844 810.234375 2287.550781 812.53125 2285.417969 813.265625 C 2282.148438 814.414062 2265.886719 807.761719 2263.636719 804.347656 C 2262.804688 803.085938 2262.699219 802.417969 2263.261719 801.441406 C 2264.140625 799.921875 2264 800.015625 2265.398438 799.898438 Z M 2373.589844 718.734375 C 2374.414062 718.664062 2375.484375 718.761719 2376.039062 718.996094 C 2376.707031 719.296875 2378.789062 724.695312 2383.273438 737.707031 C 2386.746094 747.757812 2389.953125 756.910156 2390.496094 758.03125 C 2391.535156 760.429688 2392.140625 763.789062 2391.925781 765.605469 C 2391.683594 767.578125 2389.277344 769.632812 2387.554688 769.359375 C 2384.1875 768.828125 2377.089844 759.488281 2369.042969 744.9375 C 2362.398438 733.019531 2361.183594 730.0625 2361.53125 727.019531 L 2361.792969 724.765625 L 2366.921875 721.855469 C 2369.757812 720.253906 2372.71875 718.839844 2373.589844 718.734375 Z M 2332.105469 744.800781 C 2333.039062 744.789062 2334.078125 745.242188 2334.417969 745.757812 C 2335.097656 746.785156 2337.15625 753.476562 2339.957031 763.839844 L 2341.496094 769.53125 L 2347.386719 766.050781 C 2360.625 758.332031 2361.074219 758.707031 2363.792969 778.3125 C 2365.285156 789.132812 2366.246094 795.070312 2367.867188 802.925781 C 2368.0625 804.140625 2367.957031 805.816406 2367.582031 806.667969 C 2366.953125 808.15625 2366.765625 808.28125 2365.226562 808.289062 C 2364.292969 808.296875 2363.054688 807.84375 2362.449219 807.234375 C 2361.324219 806.234375 2356.5 795.457031 2352.351562 784.578125 C 2351.113281 781.371094 2350.085938 778.695312 2350.023438 778.601562 C 2349.960938 778.507812 2347.839844 779.972656 2345.296875 781.917969 C 2337.835938 787.503906 2333.683594 788.429688 2331.464844 785.066406 C 2330.539062 783.660156 2327.949219 776.984375 2322.839844 762.710938 C 2318.785156 751.367188 2318.75 751.722656 2325.519531 747.734375 C 2328.886719 745.714844 2330.972656 744.808594 2332.105469 744.800781 Z M 2172.585938 849.195312 C 2184.082031 847.386719 2200.027344 857.734375 2204.5 869.816406 C 2207.039062 876.726562 2207.453125 886.109375 2205.425781 890.464844 C 2204.089844 893.222656 2200.144531 895.691406 2196.085938 896.152344 C 2192.679688 896.585938 2190.339844 895.78125 2187.199219 893.15625 L 2185.34375 891.5625 L 2184.179688 896.621094 C 2182.96875 902.113281 2182.136719 903.398438 2178.664062 905.152344 C 2172.695312 908.214844 2166.148438 903.070312 2163.59375 893.285156 C 2161.203125 884.261719 2161.511719 876.480469 2164.558594 870.71875 C 2166.570312 866.84375 2171.171875 863.542969 2174.339844 863.667969 C 2178.023438 863.855469 2179.707031 865.292969 2182.675781 870.917969 C 2186.644531 878.363281 2191.28125 885.300781 2193.308594 886.644531 C 2197.257812 889.273438 2199.464844 884.066406 2197.84375 876.214844 C 2196.800781 871.066406 2193.734375 866.3125 2189.402344 863.199219 C 2182.683594 858.300781 2178.714844 856.761719 2174.082031 857.265625 C 2168.949219 857.832031 2157.835938 867.03125 2154.769531 873.277344 C 2152.144531 878.5625 2151.257812 887.195312 2152.714844 893.277344 C 2153.644531 897.027344 2159.492188 906.71875 2162.691406 909.84375 C 2168.660156 915.636719 2176.0625 916.992188 2188.757812 914.664062 C 2198.976562 912.757812 2203.308594 910.371094 2210.484375 902.421875 C 2217.617188 894.503906 2217.664062 894.472656 2218.28125 894.804688 C 2219.136719 895.179688 2219.746094 897.328125 2219.546875 899.46875 C 2219.03125 905.710938 2207.5 916.933594 2198.140625 920.351562 C 2189.078125 923.707031 2176.777344 925.308594 2170.539062 923.988281 C 2164.84375 922.777344 2161.835938 921.273438 2157.675781 917.507812 C 2148.335938 909.039062 2142.484375 894.457031 2143.746094 882.824219 C 2144.757812 873.773438 2147.777344 867.761719 2154.917969 860.371094 C 2161.125 854 2167.40625 849.992188 2172.585938 849.195312 Z M 2228.859375 806.875 C 2238.523438 804.128906 2244.960938 806.054688 2250.730469 813.589844 C 2255.421875 819.6875 2255.316406 827.066406 2250.339844 836.921875 C 2248.8125 840.003906 2247.273438 843.367188 2246.984375 844.363281 C 2246.160156 847.386719 2246.011719 851.847656 2246.691406 855.625 C 2247.742188 861.703125 2247.828125 863.054688 2247.109375 864 C 2245.9375 865.375 2243.5 865.039062 2241.304688 863.132812 C 2237.1875 859.539062 2236.097656 854.621094 2237.542969 846.425781 C 2238.359375 841.863281 2239.054688 840.066406 2242.066406 834.859375 C 2246.304688 827.441406 2246.832031 824.675781 2244.863281 820.878906 C 2243.28125 817.964844 2239.691406 814.964844 2237.269531 814.546875 C 2234.101562 814.019531 2228.175781 815.511719 2224.539062 817.839844 C 2221.75 819.613281 2221.027344 820.351562 2219.914062 822.632812 C 2219.160156 824.136719 2218.449219 826.414062 2218.300781 827.71875 C 2218.023438 830.046875 2218.144531 830.234375 2220.9375 833.960938 C 2224.300781 838.453125 2224.679688 840.148438 2222.433594 841.628906 C 2219.671875 843.449219 2214.238281 840.191406 2211.546875 834.988281 C 2209.148438 830.332031 2209.488281 825.144531 2212.554688 818.898438 C 2215.476562 812.945312 2220.484375 809.242188 2228.859375 806.875 Z M 2095.25 868.507812 C 2093.445312 876.875 2092.566406 878.792969 2091.457031 877.109375 C 2090.375 875.472656 2095.273438 858.5625 2096.527344 859.550781 C 2096.804688 859.769531 2096.222656 863.773438 2095.25 868.507812 Z M 2316.859375 675.433594 C 2319.628906 675.152344 2320.777344 678.21875 2318.4375 679.761719 C 2315.675781 681.582031 2313.304688 678.179688 2315.601562 675.660156 C 2315.664062 675.554688 2316.207031 675.460938 2316.859375 675.433594 Z M 2337.375 655.539062 C 2350.644531 650.621094 2373.875 647.988281 2388.921875 649.742188 C 2391.730469 650.035156 2394.140625 650.324219 2394.296875 650.359375 C 2394.421875 650.34375 2394.574219 650.574219 2394.480469 650.839844 C 2394.460938 651.117188 2391.335938 651.371094 2387.589844 651.488281 C 2366.984375 651.992188 2346.160156 654.917969 2334.746094 658.886719 C 2332.082031 659.835938 2329.859375 660.429688 2329.707031 660.195312 C 2329.273438 659.539062 2333.515625 657.015625 2337.375 655.539062 Z M 2303.0625 677.820312 C 2303.917969 677.996094 2304.832031 678.464844 2305.078125 678.839844 C 2305.605469 679.636719 2305.136719 682.492188 2304.433594 682.953125 C 2303.734375 683.414062 2300.925781 682.71875 2300.402344 681.921875 C 2299.875 681.128906 2300.34375 678.273438 2301.046875 677.808594 C 2301.324219 677.625 2302.210938 677.644531 2303.0625 677.820312 Z M 2118.84375 792.390625 C 2118.996094 792.625 2116.550781 796.855469 2113.503906 801.8125 C 2107.863281 810.964844 2101.308594 823.730469 2097.667969 832.773438 C 2096.597656 835.421875 2094.277344 842.183594 2092.441406 847.753906 C 2090.6875 853.335938 2088.332031 860.660156 2087.222656 864.070312 C 2086.164062 867.453125 2084.832031 872.355469 2084.304688 874.914062 C 2083.425781 879.382812 2082.230469 881.445312 2081.308594 880.042969 C 2080.042969 878.125 2083.65625 859.980469 2088.195312 845.585938 C 2090.695312 837.570312 2096.664062 823.910156 2100.742188 816.863281 C 2105.152344 809.195312 2116.039062 793.839844 2118.035156 792.386719 C 2118.316406 792.199219 2118.71875 792.203125 2118.84375 792.390625 Z M 2167.488281 743.496094 C 2155.820312 751.855469 2146.5 759.207031 2138.320312 766.34375 C 2110.367188 790.730469 2107.242188 793.730469 2101.742188 801.582031 C 2095.148438 811.023438 2086.070312 828.207031 2081.640625 839.714844 C 2078.675781 847.433594 2074.886719 861.335938 2074.058594 867.3125 C 2072.828125 876.441406 2073.585938 893.582031 2075.644531 905.972656 C 2077.152344 914.773438 2082.136719 931.8125 2086.121094 941.929688 C 2089.585938 950.648438 2090.339844 952.097656 2094.945312 959.1875 C 2103.757812 972.5625 2111.191406 979.667969 2124.46875 987.285156 C 2134.519531 993.066406 2144.046875 996.113281 2151.164062 995.714844 C 2153.292969 995.585938 2159.992188 995.664062 2166.019531 995.847656 C 2179.414062 996.210938 2184.808594 995.941406 2191.417969 994.46875 C 2202.902344 991.933594 2224.71875 983.386719 2250.503906 971.289062 C 2274.328125 960.082031 2280.125 957.269531 2290.816406 951.496094 C 2301.992188 945.539062 2311.792969 940.554688 2325.332031 934.113281 C 2332.828125 930.515625 2344.625 924.285156 2356.238281 917.769531 C 2365.980469 912.289062 2379.738281 905.972656 2384.734375 904.691406 C 2392.640625 902.632812 2398.730469 902.914062 2409.484375 905.886719 C 2419.972656 908.765625 2426.699219 911.644531 2437.417969 917.925781 C 2445.6875 922.738281 2446.957031 923.644531 2454.347656 930.582031 C 2462.402344 938.015625 2466.324219 942.539062 2478.03125 957.558594 C 2480.59375 960.832031 2484.699219 965.640625 2487.207031 968.214844 C 2490.925781 972.132812 2492.042969 973.011719 2494.074219 973.546875 C 2495.953125 974.054688 2496.898438 973.964844 2498.164062 973.132812 C 2501.484375 970.945312 2500.761719 966.996094 2494.878906 954.503906 C 2492.929688 950.425781 2490.042969 944.214844 2488.382812 940.679688 C 2486.769531 937.109375 2483.238281 929.917969 2480.546875 924.714844 C 2470.234375 904.484375 2458.628906 875.574219 2454.921875 860.984375 C 2452.398438 850.839844 2451.199219 842.507812 2451.992188 840.242188 C 2453.554688 835.996094 2457.605469 828.699219 2461.800781 822.441406 C 2471.125 808.789062 2476.292969 799.210938 2480.394531 787.921875 C 2484.148438 777.734375 2485.328125 772.800781 2486.230469 764.289062 C 2487.28125 753.871094 2486.777344 749.039062 2483.5625 737.941406 C 2477.507812 717.25 2468.386719 697.507812 2459.609375 686.324219 C 2449.300781 673.128906 2433.605469 658.992188 2422.5625 652.925781 C 2407.335938 644.582031 2383.222656 640.6875 2362.449219 643.175781 C 2347.925781 644.96875 2341.261719 646.875 2321.171875 654.886719 C 2300.441406 663.25 2288.800781 669.109375 2266.523438 682.453125 C 2259.785156 686.492188 2248.078125 693.265625 2240.53125 697.5 C 2215.640625 711.5625 2210.976562 714.367188 2190.730469 727.84375 C 2179.71875 735.167969 2169.253906 742.199219 2167.488281 743.496094 " fill-opacity="1" fill-rule="evenodd"/></g></g></g></g><g clip-path="url(#46d051e5e5)"><g clip-path="url(#02bf1c56a7)"><g clip-path="url(#88415c7da7)"><g clip-path="url(#80858b6513)"><path fill="#303030" d="M 2171.453125 873.953125 C 2170.703125 875.253906 2169.960938 877.285156 2169.8125 878.589844 C 2169.03125 885.140625 2173.570312 898.648438 2176.003906 897.046875 C 2176.65625 896.613281 2177.570312 891.988281 2177.585938 888.960938 C 2177.660156 884.082031 2176.402344 875.65625 2175.324219 874.019531 C 2174.707031 873.082031 2174.292969 871.945312 2174.40625 871.40625 C 2174.726562 869.851562 2172.914062 871.382812 2171.453125 873.953125 " fill-opacity="1" fill-rule="evenodd"/></g></g></g></g><g clip-path="url(#1c75b327c3)"><path fill="#be1931" d="M 2854.671875 1189.5625 L 2845.097656 1171.296875 L 2854.230469 1166.511719 C 2868.332031 1159.117188 2883.585938 1150.144531 2886.125 1137.15625 C 2888.097656 1127.058594 2882.523438 1114.160156 2869.554688 1098.824219 L 2862.898438 1090.949219 L 2878.640625 1077.636719 L 2885.300781 1085.507812 C 2902.746094 1106.140625 2909.640625 1124.332031 2906.359375 1141.109375 C 2901.714844 1164.898438 2877.042969 1177.824219 2863.800781 1184.773438 Z M 2962.453125 1255.117188 L 2957.667969 1245.984375 C 2950.273438 1231.878906 2941.296875 1216.628906 2928.3125 1214.089844 C 2918.21875 1212.113281 2905.316406 1217.691406 2889.976562 1230.660156 L 2882.105469 1237.316406 L 2868.789062 1221.574219 L 2876.660156 1214.917969 C 2897.289062 1197.464844 2915.460938 1190.558594 2932.265625 1193.859375 C 2956.050781 1198.5 2968.980469 1223.164062 2975.925781 1236.417969 L 2980.710938 1245.550781 Z M 3012.71875 1231.421875 L 3006.058594 1223.546875 C 2988.605469 1202.914062 2981.71875 1184.726562 2985 1167.9375 C 2989.644531 1144.15625 3014.308594 1131.230469 3027.558594 1124.28125 L 3036.691406 1119.5 L 3046.265625 1137.765625 L 3037.132812 1142.546875 C 3023.027344 1149.941406 3007.78125 1158.917969 3005.242188 1171.898438 C 3003.265625 1182.003906 3008.839844 1194.894531 3021.804688 1210.230469 L 3028.460938 1218.105469 Z M 2967.300781 1116.003906 C 2964.527344 1116.003906 2961.796875 1115.738281 2959.097656 1115.214844 C 2935.3125 1110.570312 2922.386719 1085.902344 2915.4375 1072.65625 L 2910.652344 1063.523438 L 2928.917969 1053.949219 L 2933.710938 1063.082031 C 2941.105469 1077.179688 2950.078125 1092.4375 2963.058594 1094.976562 C 2973.140625 1096.945312 2986.050781 1091.382812 3001.394531 1078.40625 L 3009.265625 1071.75 L 3022.582031 1087.492188 L 3014.710938 1094.152344 C 2997.378906 1108.796875 2981.785156 1116.003906 2967.300781 1116.003906 Z M 2967.300781 1116.003906 " fill-opacity="1" fill-rule="nonzero"/></g></svg>