<!DOCTYPE svg PUBLIC "-//W3C//DTD SVG 1.1//EN" "http://www.w3.org/Graphics/SVG/1.1/DTD/svg11.dtd">
<!-- Uploaded to: SVG Repo, www.svgrepo.com, Transformed by: SVG Repo Mixer Tools -->
<svg width="800px" height="800px" viewBox="-51.2 -51.2 614.40 614.40" xmlns="http://www.w3.org/2000/svg" fill="#000000">
<g id="SVGRepo_bgCarrier" stroke-width="0">
<path transform="translate(-51.2, -51.2), scale(19.2)" d="M16,25.03948415737403C18.779766491835748,25.42542383882937,19.94959926348104,30.42475686773129,22.71424353806804,29.942270368595832C25.048469940707978,29.53490051796015,24.558980001870246,25.667131071206555,25.29994137389464,23.416455763847438C25.844786009093866,21.76148640499993,25.953822106238217,20.04956934349785,26.514224104060098,18.39980304002734C27.143848920768097,16.546251820597533,29.19752752387039,14.994959816800494,28.812577724343235,13.07561274430206C28.430561486588896,11.170892314569954,25.653734420704467,10.765209191663574,24.64948341731432,9.102267147112197C23.447580363942016,7.112032520330359,24.562163802083365,3.579051482355637,22.467852872244663,2.569365120902118C20.374024731413986,1.5599115164236583,18.31435832240175,4.715804410887402,16,4.932272465017281C13.9726827228768,5.121892811112749,12.057929609223576,3.2055648837564186,10.089695807835103,3.7271268847184107C8.130889635601983,4.246190659543282,6.484533413656337,5.877882113300189,5.582954950426403,7.692683782175871C4.7032542048020805,9.46344744433208,4.917238226037144,11.583887971787874,5.215484436465323,13.538504698164196C5.464105215116458,15.167891142935941,6.894456370014939,16.391059466450216,7.158452589996745,18.018025499844374C7.446451381701334,19.79291550317176,6.3011856405564215,21.606809668785488,6.80476087447936,23.332958507013014C7.36146284458184,25.24121450174373,8.172904274696787,27.831999283025823,10.127333425140598,28.194717797630716C12.339966479800587,28.605355847503088,13.770965932686568,24.73000755190422,16,25.03948415737403" fill="#cbac64" strokewidth="0"/>
</g>
<g id="SVGRepo_tracerCarrier" stroke-linecap="round" stroke-linejoin="round"/>
<g id="SVGRepo_iconCarrier">
<path fill="#E8D6A1" d="M105 41v96h30V41zm272 0v98h30V41zM25 57v30h62V57zm128 0v30h206V57zm272 0v30h62V57zM69 137v99l56.8 14.2L69 265.7v126.1c14.39-3.5 29.01-1.7 42.7 3.4 17.9 6.5 34.9 18 51.6 30.1 33.4 24.3 65.9 50.3 92.7 50.3 26.8 0 59.3-26 92.7-50.3 16.7-12.1 33.7-23.6 51.6-30.1 13.7-5.1 28.3-6.9 42.7-3.4v-42.6l-15.4-10.7-28.2-19.6L443 323V220.4l-45.7-14.5 45.7-9.5V137h-18v20h-66v-20H153v18H87v-18zm184.3 30H253.6c14.9.5 22.8 11.9 26.5 15.5 1.9 1.9 1.8 1.6 2.1 1.6 5.5-2.5 6.8-3.7 11.3-7.7h3.4c10 0 18.8 5.3 24.7 12.8 5.9 7.5 9.2 17.4 9.2 28.1 0 3.9-.4 7.6-1.3 11.2 4.1-1.5 8.1-2.7 12.2-2.9 1.5-.2 2.9-.1 4.3.1 5.9.6 12.7 5.2 14.6 11.7 10.3 34.2 7.7 71.4.1 100.8-2.7 10.6-10.6 17.6-18.6 20.3-4.5 1.5-8.9 2.1-13.1 2.4-.2 2 0 32.6 0 50.1H183c-.1-17.9 0-34.7 0-52 3.5-30.3 8.9-71.6 12.6-104.5-13.1-6.2-22.3-18.8-22.3-33.7 0-21.2 18.7-37.8 40.6-37.8 4.1 0 8.2.6 12 1.8 6.3-10.5 15.9-17.8 27.4-17.8zm-.1 18c-4.7.1-10.7 4.3-14.5 14.4l-3.6 9.7-9.1-5c-3.6-2-7.9-3.1-12.1-3.1-13.1 0-22.6 9.2-22.6 19.8 0 10.6 9.5 19.8 22.6 19.8 5.4 0 10.6-1.7 14.5-4.6l7.9-5.9 5.2 8.4c3.8 6.3 8.1 8.5 11.8 8.5 4.7 0 10.8-4.3 14.7-14.6l6.9-18.5 9.4 17.3c3.5 6.3 8.1 9 12.6 9 3.7 0 7.3-1.9 10.5-5.9 3.1-4 5.4-10.1 5.4-17s-2.3-13-5.4-17c-2.4-3-5-4.8-7.8-5.6-5.6 4.4-10.8 7.1-16.5 7.4-6.7.3-12.2-3.5-15.5-6.6-6.4-6.2-8.1-10.2-14.4-10.5zm90.4 58.6c-9.9 1.2-19.7 7.5-26.9 13.2l9.6 86.1c3.9-.2 7.5-.6 10-1.5 3.9-1.3 5.6-2.3 7-7.6 6.8-26.5 8.9-60.6.3-90.2zm-65.6 7.6c-6.2 8.3-14.7 13.8-24.7 13.8-8.4 0-16-3.9-21.9-10.2-5.5 2.5-11.5 3.8-17.5 3.8h-.6L202.1 359h107.8l-11.2-100.9c-.6.1-1.2.1-1.8.1-7 0-13.5-2.6-18.9-7zM201 377v16h110v-16z"/>
</g>
</svg>